<mxfile host="app.diagrams.net" agent="Mozilla/5.0 (Windows NT 10.0; Win64; x64) AppleWebKit/537.36 (KHTML, like Gecko) Chrome/131.0.0.0 Safari/537.36" version="24.7.7" pages="3">
  <diagram name="Page-1" id="VpwHUVALcCsPhT-ijbzs">
    <mxGraphModel dx="1985" dy="1135" grid="1" gridSize="10" guides="1" tooltips="1" connect="1" arrows="1" fold="1" page="1" pageScale="1" pageWidth="900" pageHeight="1600" math="0" shadow="0">
      <root>
        <mxCell id="0" />
        <mxCell id="1" parent="0" />
        <mxCell id="J4t5SeBaxSAbDdzJBMGO-39" style="edgeStyle=orthogonalEdgeStyle;rounded=0;orthogonalLoop=1;jettySize=auto;html=1;exitX=0.25;exitY=1;exitDx=0;exitDy=0;entryX=0.5;entryY=1;entryDx=0;entryDy=0;" parent="1" source="PuuIRxNpJaK9xhJoGpnJ-6" target="RWWM5zOb3Cw1ECgkpZAW-15" edge="1">
          <mxGeometry relative="1" as="geometry">
            <mxPoint x="583" y="1180" as="targetPoint" />
            <Array as="points">
              <mxPoint x="128" y="280" />
              <mxPoint x="40" y="280" />
              <mxPoint x="40" y="1280" />
              <mxPoint x="605" y="1280" />
            </Array>
          </mxGeometry>
        </mxCell>
        <mxCell id="PuuIRxNpJaK9xhJoGpnJ-6" value="&lt;font style=&quot;font-size: 16px;&quot;&gt;INS_ID&lt;/font&gt;" style="rounded=0;whiteSpace=wrap;html=1;" parent="1" vertex="1">
          <mxGeometry x="110" y="220" width="70" height="30" as="geometry" />
        </mxCell>
        <mxCell id="PuuIRxNpJaK9xhJoGpnJ-7" value="&lt;font style=&quot;font-size: 16px;&quot;&gt;F_name&lt;/font&gt;" style="rounded=0;whiteSpace=wrap;html=1;" parent="1" vertex="1">
          <mxGeometry x="180" y="220" width="70" height="30" as="geometry" />
        </mxCell>
        <mxCell id="PuuIRxNpJaK9xhJoGpnJ-8" value="&lt;font style=&quot;font-size: 16px;&quot;&gt;L_name&lt;/font&gt;" style="rounded=0;whiteSpace=wrap;html=1;" parent="1" vertex="1">
          <mxGeometry x="250" y="220" width="70" height="30" as="geometry" />
        </mxCell>
        <mxCell id="PuuIRxNpJaK9xhJoGpnJ-9" value="&lt;font style=&quot;font-size: 16px;&quot;&gt;sex&lt;/font&gt;" style="rounded=0;whiteSpace=wrap;html=1;" parent="1" vertex="1">
          <mxGeometry x="320" y="220" width="70" height="30" as="geometry" />
        </mxCell>
        <mxCell id="PuuIRxNpJaK9xhJoGpnJ-10" value="&lt;font style=&quot;font-size: 16px;&quot;&gt;pic&lt;/font&gt;" style="rounded=0;whiteSpace=wrap;html=1;" parent="1" vertex="1">
          <mxGeometry x="390" y="220" width="70" height="30" as="geometry" />
        </mxCell>
        <mxCell id="PuuIRxNpJaK9xhJoGpnJ-13" value="&lt;font style=&quot;font-size: 16px;&quot;&gt;Phone&lt;/font&gt;" style="rounded=0;whiteSpace=wrap;html=1;" parent="1" vertex="1">
          <mxGeometry x="460" y="220" width="70" height="30" as="geometry" />
        </mxCell>
        <mxCell id="PuuIRxNpJaK9xhJoGpnJ-14" value="&lt;font style=&quot;font-size: 16px;&quot;&gt;Email&lt;/font&gt;" style="rounded=0;whiteSpace=wrap;html=1;" parent="1" vertex="1">
          <mxGeometry x="530" y="220" width="70" height="30" as="geometry" />
        </mxCell>
        <mxCell id="J4t5SeBaxSAbDdzJBMGO-32" style="edgeStyle=orthogonalEdgeStyle;rounded=0;orthogonalLoop=1;jettySize=auto;html=1;entryX=0.5;entryY=1;entryDx=0;entryDy=0;exitX=0.25;exitY=1;exitDx=0;exitDy=0;" parent="1" source="PuuIRxNpJaK9xhJoGpnJ-15" target="J4t5SeBaxSAbDdzJBMGO-19" edge="1">
          <mxGeometry relative="1" as="geometry">
            <mxPoint x="160" y="790" as="sourcePoint" />
          </mxGeometry>
        </mxCell>
        <mxCell id="J4t5SeBaxSAbDdzJBMGO-34" style="edgeStyle=orthogonalEdgeStyle;rounded=0;orthogonalLoop=1;jettySize=auto;html=1;exitX=0.75;exitY=1;exitDx=0;exitDy=0;entryX=0.5;entryY=1;entryDx=0;entryDy=0;" parent="1" source="PuuIRxNpJaK9xhJoGpnJ-15" target="J4t5SeBaxSAbDdzJBMGO-26" edge="1">
          <mxGeometry relative="1" as="geometry">
            <mxPoint x="240" y="930" as="targetPoint" />
            <Array as="points">
              <mxPoint x="173" y="830" />
              <mxPoint x="470" y="830" />
              <mxPoint x="470" y="920" />
              <mxPoint x="235" y="920" />
            </Array>
          </mxGeometry>
        </mxCell>
        <mxCell id="J4t5SeBaxSAbDdzJBMGO-40" style="edgeStyle=orthogonalEdgeStyle;rounded=0;orthogonalLoop=1;jettySize=auto;html=1;exitX=0.5;exitY=1;exitDx=0;exitDy=0;entryX=0.5;entryY=1;entryDx=0;entryDy=0;" parent="1" source="PuuIRxNpJaK9xhJoGpnJ-15" target="RWWM5zOb3Cw1ECgkpZAW-14" edge="1">
          <mxGeometry relative="1" as="geometry">
            <Array as="points">
              <mxPoint x="155" y="800" />
              <mxPoint x="80" y="800" />
              <mxPoint x="80" y="1240" />
              <mxPoint x="515" y="1240" />
            </Array>
          </mxGeometry>
        </mxCell>
        <mxCell id="PuuIRxNpJaK9xhJoGpnJ-15" value="&lt;font style=&quot;font-size: 16px;&quot;&gt;Stu_ID&lt;/font&gt;" style="rounded=0;whiteSpace=wrap;html=1;" parent="1" vertex="1">
          <mxGeometry x="120" y="720" width="110" height="30" as="geometry" />
        </mxCell>
        <mxCell id="PuuIRxNpJaK9xhJoGpnJ-16" value="&lt;font style=&quot;font-size: 16px;&quot;&gt;F_name&lt;/font&gt;" style="rounded=0;whiteSpace=wrap;html=1;" parent="1" vertex="1">
          <mxGeometry x="225" y="720" width="70" height="30" as="geometry" />
        </mxCell>
        <mxCell id="PuuIRxNpJaK9xhJoGpnJ-17" value="&lt;font style=&quot;font-size: 16px;&quot;&gt;L_name&lt;/font&gt;" style="rounded=0;whiteSpace=wrap;html=1;" parent="1" vertex="1">
          <mxGeometry x="295" y="720" width="70" height="30" as="geometry" />
        </mxCell>
        <mxCell id="PuuIRxNpJaK9xhJoGpnJ-18" value="&lt;font style=&quot;font-size: 16px;&quot;&gt;sex&lt;/font&gt;" style="rounded=0;whiteSpace=wrap;html=1;" parent="1" vertex="1">
          <mxGeometry x="365" y="720" width="70" height="30" as="geometry" />
        </mxCell>
        <mxCell id="PuuIRxNpJaK9xhJoGpnJ-19" value="&lt;font style=&quot;font-size: 16px;&quot;&gt;pic&lt;/font&gt;" style="rounded=0;whiteSpace=wrap;html=1;" parent="1" vertex="1">
          <mxGeometry x="435" y="720" width="70" height="30" as="geometry" />
        </mxCell>
        <mxCell id="PuuIRxNpJaK9xhJoGpnJ-21" value="&lt;font style=&quot;font-size: 16px;&quot;&gt;Phone&lt;/font&gt;" style="rounded=0;whiteSpace=wrap;html=1;" parent="1" vertex="1">
          <mxGeometry x="505" y="720" width="70" height="30" as="geometry" />
        </mxCell>
        <mxCell id="PuuIRxNpJaK9xhJoGpnJ-22" value="&lt;font style=&quot;font-size: 16px;&quot;&gt;Email&lt;/font&gt;" style="rounded=0;whiteSpace=wrap;html=1;" parent="1" vertex="1">
          <mxGeometry x="575" y="720" width="70" height="30" as="geometry" />
        </mxCell>
        <mxCell id="J4t5SeBaxSAbDdzJBMGO-33" style="edgeStyle=orthogonalEdgeStyle;rounded=0;orthogonalLoop=1;jettySize=auto;html=1;exitX=0.5;exitY=1;exitDx=0;exitDy=0;entryX=0.5;entryY=1;entryDx=0;entryDy=0;" parent="1" source="PuuIRxNpJaK9xhJoGpnJ-31" target="J4t5SeBaxSAbDdzJBMGO-20" edge="1">
          <mxGeometry relative="1" as="geometry">
            <mxPoint x="230" y="530" as="sourcePoint" />
            <mxPoint x="220" y="660" as="targetPoint" />
            <Array as="points">
              <mxPoint x="165" y="570" />
              <mxPoint x="320" y="570" />
              <mxPoint x="320" y="655" />
              <mxPoint x="235" y="655" />
            </Array>
          </mxGeometry>
        </mxCell>
        <mxCell id="J4t5SeBaxSAbDdzJBMGO-37" style="edgeStyle=orthogonalEdgeStyle;rounded=0;orthogonalLoop=1;jettySize=auto;html=1;exitX=0.75;exitY=1;exitDx=0;exitDy=0;entryX=0.5;entryY=1;entryDx=0;entryDy=0;" parent="1" source="PuuIRxNpJaK9xhJoGpnJ-31" target="J4t5SeBaxSAbDdzJBMGO-41" edge="1">
          <mxGeometry relative="1" as="geometry">
            <mxPoint x="1030" y="1150" as="targetPoint" />
            <Array as="points">
              <mxPoint x="188" y="550" />
              <mxPoint x="1320" y="550" />
              <mxPoint x="1320" y="1070" />
              <mxPoint x="925" y="1070" />
            </Array>
          </mxGeometry>
        </mxCell>
        <mxCell id="PuuIRxNpJaK9xhJoGpnJ-31" value="&lt;span style=&quot;font-size: 16px;&quot;&gt;course_ID&lt;/span&gt;" style="rounded=0;whiteSpace=wrap;html=1;" parent="1" vertex="1">
          <mxGeometry x="120" y="470" width="90" height="30" as="geometry" />
        </mxCell>
        <mxCell id="PuuIRxNpJaK9xhJoGpnJ-32" value="&lt;span style=&quot;font-size: 16px;&quot;&gt;name&lt;/span&gt;" style="rounded=0;whiteSpace=wrap;html=1;" parent="1" vertex="1">
          <mxGeometry x="210" y="470" width="70" height="30" as="geometry" />
        </mxCell>
        <mxCell id="RWWM5zOb3Cw1ECgkpZAW-1" value="&lt;span style=&quot;font-size: 16px;&quot;&gt;task_name&lt;/span&gt;" style="rounded=0;whiteSpace=wrap;html=1;" parent="1" vertex="1">
          <mxGeometry x="200" y="1010" width="90" height="30" as="geometry" />
        </mxCell>
        <mxCell id="J4t5SeBaxSAbDdzJBMGO-35" style="edgeStyle=orthogonalEdgeStyle;rounded=0;orthogonalLoop=1;jettySize=auto;html=1;entryX=0.5;entryY=1;entryDx=0;entryDy=0;exitX=0.25;exitY=1;exitDx=0;exitDy=0;" parent="1" source="RWWM5zOb3Cw1ECgkpZAW-2" target="J4t5SeBaxSAbDdzJBMGO-27" edge="1">
          <mxGeometry relative="1" as="geometry">
            <mxPoint x="150" y="1060" as="sourcePoint" />
          </mxGeometry>
        </mxCell>
        <mxCell id="a1lwO39-g4uqzTnm75bQ-3" style="edgeStyle=orthogonalEdgeStyle;rounded=0;orthogonalLoop=1;jettySize=auto;html=1;exitX=0.5;exitY=1;exitDx=0;exitDy=0;entryX=0.5;entryY=1;entryDx=0;entryDy=0;" edge="1" parent="1" source="RWWM5zOb3Cw1ECgkpZAW-2" target="J4t5SeBaxSAbDdzJBMGO-5">
          <mxGeometry relative="1" as="geometry">
            <mxPoint x="679.9999999999998" y="1119.9999999999998" as="targetPoint" />
            <Array as="points">
              <mxPoint x="165" y="1100" />
              <mxPoint x="990" y="1100" />
              <mxPoint x="990" y="1185" />
              <mxPoint x="685" y="1185" />
            </Array>
          </mxGeometry>
        </mxCell>
        <mxCell id="a1lwO39-g4uqzTnm75bQ-4" style="edgeStyle=orthogonalEdgeStyle;rounded=0;orthogonalLoop=1;jettySize=auto;html=1;exitX=0.75;exitY=1;exitDx=0;exitDy=0;entryX=0.5;entryY=1;entryDx=0;entryDy=0;" edge="1" parent="1" source="RWWM5zOb3Cw1ECgkpZAW-2" target="a1lwO39-g4uqzTnm75bQ-2">
          <mxGeometry relative="1" as="geometry">
            <Array as="points">
              <mxPoint x="183" y="1090" />
              <mxPoint x="1350" y="1090" />
              <mxPoint x="1350" y="430" />
              <mxPoint x="980" y="430" />
            </Array>
          </mxGeometry>
        </mxCell>
        <mxCell id="RWWM5zOb3Cw1ECgkpZAW-2" value="&lt;span style=&quot;font-size: 16px;&quot;&gt;task_id&lt;/span&gt;" style="rounded=0;whiteSpace=wrap;html=1;" parent="1" vertex="1">
          <mxGeometry x="130" y="1010" width="70" height="30" as="geometry" />
        </mxCell>
        <mxCell id="RWWM5zOb3Cw1ECgkpZAW-3" value="&lt;span style=&quot;font-size: 16px;&quot;&gt;description&lt;/span&gt;" style="rounded=0;whiteSpace=wrap;html=1;" parent="1" vertex="1">
          <mxGeometry x="290" y="1010" width="90" height="30" as="geometry" />
        </mxCell>
        <mxCell id="RWWM5zOb3Cw1ECgkpZAW-4" value="&lt;span style=&quot;font-size: 16px;&quot;&gt;has_multiple_attempt&lt;/span&gt;" style="rounded=0;whiteSpace=wrap;html=1;" parent="1" vertex="1">
          <mxGeometry x="380" y="1010" width="150" height="30" as="geometry" />
        </mxCell>
        <mxCell id="RWWM5zOb3Cw1ECgkpZAW-5" value="&lt;span style=&quot;font-size: 16px;&quot;&gt;start_date&lt;/span&gt;" style="rounded=0;whiteSpace=wrap;html=1;" parent="1" vertex="1">
          <mxGeometry x="680" y="1010" width="100" height="30" as="geometry" />
        </mxCell>
        <mxCell id="RWWM5zOb3Cw1ECgkpZAW-7" value="&lt;span style=&quot;font-size: 16px;&quot;&gt;due_date&lt;/span&gt;" style="rounded=0;whiteSpace=wrap;html=1;" parent="1" vertex="1">
          <mxGeometry x="780" y="1010" width="100" height="30" as="geometry" />
        </mxCell>
        <mxCell id="RWWM5zOb3Cw1ECgkpZAW-8" value="&lt;span style=&quot;font-size: 16px;&quot;&gt;grade&lt;/span&gt;" style="rounded=0;whiteSpace=wrap;html=1;" parent="1" vertex="1">
          <mxGeometry x="610" y="1010" width="70" height="30" as="geometry" />
        </mxCell>
        <mxCell id="RWWM5zOb3Cw1ECgkpZAW-9" value="&lt;span style=&quot;font-size: 16px;&quot;&gt;repo_id&lt;/span&gt;" style="rounded=0;whiteSpace=wrap;html=1;" parent="1" vertex="1">
          <mxGeometry x="200" y="1135" width="90" height="30" as="geometry" />
        </mxCell>
        <mxCell id="RWWM5zOb3Cw1ECgkpZAW-10" value="&lt;span style=&quot;font-size: 16px;&quot;&gt;fed_id&lt;/span&gt;" style="rounded=0;whiteSpace=wrap;html=1;" parent="1" vertex="1">
          <mxGeometry x="130" y="1135" width="70" height="30" as="geometry" />
        </mxCell>
        <mxCell id="RWWM5zOb3Cw1ECgkpZAW-11" value="&lt;span style=&quot;font-size: 16px;&quot;&gt;date&lt;/span&gt;" style="rounded=0;whiteSpace=wrap;html=1;" parent="1" vertex="1">
          <mxGeometry x="290" y="1135" width="90" height="30" as="geometry" />
        </mxCell>
        <mxCell id="RWWM5zOb3Cw1ECgkpZAW-13" value="&lt;span style=&quot;font-size: 16px;&quot;&gt;message&lt;/span&gt;" style="rounded=0;whiteSpace=wrap;html=1;" parent="1" vertex="1">
          <mxGeometry x="380" y="1135" width="90" height="30" as="geometry" />
        </mxCell>
        <mxCell id="RWWM5zOb3Cw1ECgkpZAW-14" value="&lt;span style=&quot;font-size: 16px;&quot;&gt;stu_id&lt;/span&gt;" style="rounded=0;whiteSpace=wrap;html=1;" parent="1" vertex="1">
          <mxGeometry x="470" y="1135" width="90" height="30" as="geometry" />
        </mxCell>
        <mxCell id="RWWM5zOb3Cw1ECgkpZAW-15" value="&lt;span style=&quot;font-size: 16px;&quot;&gt;ins_id&lt;/span&gt;" style="rounded=0;whiteSpace=wrap;html=1;" parent="1" vertex="1">
          <mxGeometry x="560" y="1135" width="90" height="30" as="geometry" />
        </mxCell>
        <mxCell id="J4t5SeBaxSAbDdzJBMGO-1" value="&lt;span style=&quot;color: rgb(61, 71, 82);&quot;&gt;&lt;font style=&quot;font-size: 19px;&quot;&gt;Instructor&lt;/font&gt;&lt;/span&gt;" style="text;html=1;align=left;verticalAlign=middle;whiteSpace=wrap;rounded=0;fontStyle=1" parent="1" vertex="1">
          <mxGeometry x="110" y="190" width="100" height="30" as="geometry" />
        </mxCell>
        <mxCell id="J4t5SeBaxSAbDdzJBMGO-2" value="&lt;span style=&quot;color: rgb(61, 71, 82);&quot;&gt;&lt;font style=&quot;font-size: 19px;&quot;&gt;Student&lt;/font&gt;&lt;/span&gt;" style="text;html=1;align=center;verticalAlign=middle;whiteSpace=wrap;rounded=0;fontStyle=1" parent="1" vertex="1">
          <mxGeometry x="105" y="690" width="100" height="30" as="geometry" />
        </mxCell>
        <mxCell id="J4t5SeBaxSAbDdzJBMGO-4" value="&lt;font style=&quot;font-size: 16px;&quot;&gt;INS_ID&lt;/font&gt;" style="rounded=0;whiteSpace=wrap;html=1;" parent="1" vertex="1">
          <mxGeometry x="280" y="470" width="70" height="30" as="geometry" />
        </mxCell>
        <mxCell id="J4t5SeBaxSAbDdzJBMGO-5" value="&lt;span style=&quot;font-size: 16px;&quot;&gt;task_id&lt;/span&gt;" style="rounded=0;whiteSpace=wrap;html=1;" parent="1" vertex="1">
          <mxGeometry x="650" y="1135" width="70" height="30" as="geometry" />
        </mxCell>
        <mxCell id="J4t5SeBaxSAbDdzJBMGO-9" value="&lt;span style=&quot;color: rgb(61, 71, 82);&quot;&gt;&lt;font style=&quot;font-size: 19px;&quot;&gt;Task&lt;/font&gt;&lt;/span&gt;" style="text;html=1;align=left;verticalAlign=middle;whiteSpace=wrap;rounded=0;fontStyle=1" parent="1" vertex="1">
          <mxGeometry x="130" y="980" width="70" height="30" as="geometry" />
        </mxCell>
        <mxCell id="J4t5SeBaxSAbDdzJBMGO-11" value="&lt;span style=&quot;color: rgb(61, 71, 82);&quot;&gt;&lt;font style=&quot;font-size: 19px;&quot;&gt;Course&lt;/font&gt;&lt;/span&gt;" style="text;html=1;align=center;verticalAlign=middle;whiteSpace=wrap;rounded=0;fontStyle=1" parent="1" vertex="1">
          <mxGeometry x="105" y="440" width="100" height="30" as="geometry" />
        </mxCell>
        <mxCell id="J4t5SeBaxSAbDdzJBMGO-12" value="&lt;span style=&quot;font-size: 15px;&quot;&gt;&lt;font face=&quot;Helvetica&quot;&gt;stu_grade&lt;/font&gt;&lt;/span&gt;" style="rounded=0;whiteSpace=wrap;html=1;" parent="1" vertex="1">
          <mxGeometry x="270" y="870" width="90" height="30" as="geometry" />
        </mxCell>
        <mxCell id="J4t5SeBaxSAbDdzJBMGO-15" value="&lt;span style=&quot;color: rgb(61, 71, 82);&quot;&gt;&lt;font style=&quot;font-size: 19px;&quot;&gt;Feedback&lt;/font&gt;&lt;/span&gt;" style="text;html=1;align=center;verticalAlign=middle;whiteSpace=wrap;rounded=0;fontStyle=1" parent="1" vertex="1">
          <mxGeometry x="125" y="1100" width="100" height="30" as="geometry" />
        </mxCell>
        <mxCell id="J4t5SeBaxSAbDdzJBMGO-19" value="&lt;font style=&quot;font-size: 16px;&quot;&gt;Stu_ID&lt;/font&gt;" style="rounded=0;whiteSpace=wrap;html=1;" parent="1" vertex="1">
          <mxGeometry x="120" y="605" width="70" height="30" as="geometry" />
        </mxCell>
        <mxCell id="J4t5SeBaxSAbDdzJBMGO-20" value="&lt;span style=&quot;font-size: 16px;&quot;&gt;course_ID&lt;/span&gt;" style="rounded=0;whiteSpace=wrap;html=1;" parent="1" vertex="1">
          <mxGeometry x="190" y="605" width="90" height="30" as="geometry" />
        </mxCell>
        <mxCell id="J4t5SeBaxSAbDdzJBMGO-21" value="&lt;span style=&quot;color: rgb(61, 71, 82);&quot;&gt;&lt;font style=&quot;font-size: 19px;&quot;&gt;StudentCourses&lt;/font&gt;&lt;/span&gt;" style="text;html=1;align=left;verticalAlign=middle;whiteSpace=wrap;rounded=0;fontStyle=1" parent="1" vertex="1">
          <mxGeometry x="120" y="575" width="180" height="30" as="geometry" />
        </mxCell>
        <mxCell id="J4t5SeBaxSAbDdzJBMGO-26" value="&lt;font style=&quot;font-size: 16px;&quot;&gt;Stu_ID&lt;/font&gt;" style="rounded=0;whiteSpace=wrap;html=1;" parent="1" vertex="1">
          <mxGeometry x="200" y="870" width="70" height="30" as="geometry" />
        </mxCell>
        <mxCell id="J4t5SeBaxSAbDdzJBMGO-27" value="&lt;span style=&quot;font-size: 16px;&quot;&gt;task_id&lt;/span&gt;" style="rounded=0;whiteSpace=wrap;html=1;" parent="1" vertex="1">
          <mxGeometry x="130" y="870" width="70" height="30" as="geometry" />
        </mxCell>
        <mxCell id="J4t5SeBaxSAbDdzJBMGO-28" value="&lt;span style=&quot;color: rgb(61, 71, 82);&quot;&gt;&lt;font style=&quot;font-size: 19px;&quot;&gt;StudentPreformeTask&lt;/font&gt;&lt;/span&gt;" style="text;html=1;align=left;verticalAlign=middle;whiteSpace=wrap;rounded=0;fontStyle=1" parent="1" vertex="1">
          <mxGeometry x="125" y="840" width="210" height="30" as="geometry" />
        </mxCell>
        <mxCell id="J4t5SeBaxSAbDdzJBMGO-41" value="&lt;span style=&quot;font-size: 16px;&quot;&gt;course_ID&lt;/span&gt;" style="rounded=0;whiteSpace=wrap;html=1;" parent="1" vertex="1">
          <mxGeometry x="880" y="1010" width="90" height="30" as="geometry" />
        </mxCell>
        <mxCell id="J4t5SeBaxSAbDdzJBMGO-45" value="&lt;span style=&quot;font-size: 15px;&quot;&gt;&lt;font face=&quot;Helvetica&quot; style=&quot;&quot;&gt;submit_date&lt;/font&gt;&lt;/span&gt;" style="rounded=0;whiteSpace=wrap;html=1;fontColor=default;" parent="1" vertex="1">
          <mxGeometry x="360" y="870" width="90" height="30" as="geometry" />
        </mxCell>
        <mxCell id="FHuDHLUzKygGlAKaP5Ps-1" value="&lt;span style=&quot;font-size: 16px;&quot;&gt;late_submission_policy&lt;/span&gt;" style="rounded=0;whiteSpace=wrap;html=1;" parent="1" vertex="1">
          <mxGeometry x="970" y="1010" width="200" height="30" as="geometry" />
        </mxCell>
        <mxCell id="FHuDHLUzKygGlAKaP5Ps-2" value="&lt;span style=&quot;font-size: 16px;&quot;&gt;close_date&lt;/span&gt;" style="rounded=0;whiteSpace=wrap;html=1;" parent="1" vertex="1">
          <mxGeometry x="1170" y="1010" width="90" height="30" as="geometry" />
        </mxCell>
        <mxCell id="FHuDHLUzKygGlAKaP5Ps-3" value="&lt;span style=&quot;font-size: 16px;&quot;&gt;attempts&lt;/span&gt;" style="rounded=0;whiteSpace=wrap;html=1;" parent="1" vertex="1">
          <mxGeometry x="530" y="1010" width="80" height="30" as="geometry" />
        </mxCell>
        <mxCell id="FHuDHLUzKygGlAKaP5Ps-4" value="&lt;span style=&quot;font-size: 16px;&quot;&gt;name&lt;/span&gt;" style="rounded=0;whiteSpace=wrap;html=1;" parent="1" vertex="1">
          <mxGeometry x="185" y="365" width="90" height="30" as="geometry" />
        </mxCell>
        <mxCell id="FHuDHLUzKygGlAKaP5Ps-5" value="&lt;span style=&quot;font-size: 16px;&quot;&gt;id&lt;/span&gt;" style="rounded=0;whiteSpace=wrap;html=1;" parent="1" vertex="1">
          <mxGeometry x="115" y="365" width="70" height="30" as="geometry" />
        </mxCell>
        <mxCell id="FHuDHLUzKygGlAKaP5Ps-6" value="&lt;span style=&quot;font-size: 16px;&quot;&gt;created_at&lt;/span&gt;" style="rounded=0;whiteSpace=wrap;html=1;" parent="1" vertex="1">
          <mxGeometry x="275" y="365" width="90" height="30" as="geometry" />
        </mxCell>
        <mxCell id="FHuDHLUzKygGlAKaP5Ps-7" value="&lt;span style=&quot;font-size: 16px;&quot;&gt;description&lt;/span&gt;" style="rounded=0;whiteSpace=wrap;html=1;" parent="1" vertex="1">
          <mxGeometry x="365" y="365" width="90" height="30" as="geometry" />
        </mxCell>
        <mxCell id="FHuDHLUzKygGlAKaP5Ps-8" value="&lt;span style=&quot;font-size: 16px;&quot;&gt;owner&lt;/span&gt;" style="rounded=0;whiteSpace=wrap;html=1;" parent="1" vertex="1">
          <mxGeometry x="455" y="365" width="90" height="30" as="geometry" />
        </mxCell>
        <mxCell id="FHuDHLUzKygGlAKaP5Ps-9" value="url" style="rounded=0;whiteSpace=wrap;html=1;" parent="1" vertex="1">
          <mxGeometry x="545" y="365" width="90" height="30" as="geometry" />
        </mxCell>
        <mxCell id="FHuDHLUzKygGlAKaP5Ps-10" value="&lt;span style=&quot;font-size: 16px;&quot;&gt;last_updated_at&lt;/span&gt;" style="rounded=0;whiteSpace=wrap;html=1;" parent="1" vertex="1">
          <mxGeometry x="635" y="365" width="150" height="30" as="geometry" />
        </mxCell>
        <mxCell id="FHuDHLUzKygGlAKaP5Ps-11" value="&lt;span style=&quot;color: rgb(61, 71, 82);&quot;&gt;&lt;font style=&quot;font-size: 19px;&quot;&gt;Repository&amp;nbsp;&lt;/font&gt;&lt;/span&gt;" style="text;html=1;align=center;verticalAlign=middle;whiteSpace=wrap;rounded=0;fontStyle=1" parent="1" vertex="1">
          <mxGeometry x="110" y="330" width="100" height="30" as="geometry" />
        </mxCell>
        <mxCell id="FHuDHLUzKygGlAKaP5Ps-13" value="&lt;span style=&quot;font-size: 16px;&quot;&gt;source&lt;/span&gt;&lt;div&gt;&lt;span style=&quot;font-size: 16px;&quot;&gt;ENUM[human, bot]&lt;/span&gt;&lt;/div&gt;" style="rounded=0;whiteSpace=wrap;html=1;" parent="1" vertex="1">
          <mxGeometry x="720" y="1135" width="160" height="30" as="geometry" />
        </mxCell>
        <mxCell id="FHuDHLUzKygGlAKaP5Ps-14" value="&lt;span style=&quot;font-size: 16px;&quot;&gt;commit_id&lt;/span&gt;" style="rounded=0;whiteSpace=wrap;html=1;" parent="1" vertex="1">
          <mxGeometry x="880" y="1135" width="90" height="30" as="geometry" />
        </mxCell>
        <mxCell id="FHuDHLUzKygGlAKaP5Ps-15" value="&lt;span style=&quot;font-size: 16px;&quot;&gt;context/prompt&lt;/span&gt;" style="rounded=0;whiteSpace=wrap;html=1;" parent="1" vertex="1">
          <mxGeometry x="2200" y="1270" width="150" height="30" as="geometry" />
        </mxCell>
        <mxCell id="FHuDHLUzKygGlAKaP5Ps-16" value="I tried to set the environment variables but I keep getting PORT not assigned. I am not sure why I am getting db.java error 21:34 PORT not assigned" style="text;html=1;align=center;verticalAlign=middle;whiteSpace=wrap;rounded=0;" parent="1" vertex="1">
          <mxGeometry x="2190" y="1290" width="280" height="90" as="geometry" />
        </mxCell>
        <mxCell id="FHuDHLUzKygGlAKaP5Ps-17" value="&lt;span style=&quot;font-size: 16px;&quot;&gt;commit_id&lt;/span&gt;" style="rounded=0;whiteSpace=wrap;html=1;" parent="1" vertex="1">
          <mxGeometry x="2050" y="1270" width="150" height="30" as="geometry" />
        </mxCell>
        <mxCell id="FHuDHLUzKygGlAKaP5Ps-18" value="&lt;span style=&quot;font-size: 16px;&quot;&gt;feedback_id&lt;/span&gt;" style="rounded=0;whiteSpace=wrap;html=1;" parent="1" vertex="1">
          <mxGeometry x="1900" y="1270" width="150" height="30" as="geometry" />
        </mxCell>
        <mxCell id="FHuDHLUzKygGlAKaP5Ps-19" value="&lt;span style=&quot;font-size: 16px;&quot;&gt;feedback_message&lt;/span&gt;" style="rounded=0;whiteSpace=wrap;html=1;" parent="1" vertex="1">
          <mxGeometry x="2350" y="1270" width="150" height="30" as="geometry" />
        </mxCell>
        <mxCell id="FHuDHLUzKygGlAKaP5Ps-20" value="&lt;div&gt;&lt;span style=&quot;color: rgb(61, 71, 82);&quot;&gt;&lt;font style=&quot;font-size: 19px;&quot;&gt;Future Feature&amp;nbsp;&lt;/font&gt;&lt;/span&gt;&lt;span style=&quot;font-size: 19px; color: rgb(61, 71, 82); background-color: initial;&quot;&gt;Assistant?&lt;/span&gt;&lt;/div&gt;" style="text;html=1;align=center;verticalAlign=middle;whiteSpace=wrap;rounded=0;fontStyle=1" parent="1" vertex="1">
          <mxGeometry x="1880" y="1230" width="290" height="30" as="geometry" />
        </mxCell>
        <mxCell id="FHuDHLUzKygGlAKaP5Ps-21" value="&lt;pre style=&quot;margin-top: 0px; margin-bottom: 0px; padding: var(--su12); border: 0px; font-variant-numeric: inherit; font-variant-east-asian: inherit; font-variant-alternates: inherit; font-variant-position: inherit; font-stretch: inherit; line-height: var(--lh-md); font-family: var(--ff-mono); font-optical-sizing: inherit; font-kerning: inherit; font-feature-settings: inherit; font-variation-settings: inherit; font-size: var(--fs-body1); vertical-align: baseline; box-sizing: inherit; width: auto; max-height: 600px; overflow: auto; background-color: var(--highlight-bg); border-radius: var(--br-md); scrollbar-color: var(--scrollbar) transparent; --_cb-line-numbers-bg: var(--black-150); color: rgb(12, 13, 14); overflow-wrap: normal; --theme-base-primary-color-h: 27; --theme-base-primary-color-s: 89%; --theme-base-primary-color-l: 48%; --theme-primary-custom-100: hsl(var(--theme-base-primary-color-h), var(--theme-base-primary-color-s), calc(var(--theme-base-primary-color-l) + ((100% - var(--theme-base-primary-color-l)) * .9))); --theme-primary-custom-200: hsl(var(--theme-base-primary-color-h), var(--theme-base-primary-color-s), calc(var(--theme-base-primary-color-l) + ((100% - var(--theme-base-primary-color-l)) * .75))); --theme-primary-custom-300: hsl(var(--theme-base-primary-color-h), var(--theme-base-primary-color-s), calc(var(--theme-base-primary-color-l) + ((100% - var(--theme-base-primary-color-l)) * .5))); --theme-primary-custom-400: hsl(var(--theme-base-primary-color-h), var(--theme-base-primary-color-s), var(--theme-base-primary-color-l)); --theme-primary-custom-500: hsl(var(--theme-base-primary-color-h), var(--theme-base-primary-color-s), calc(var(--theme-base-primary-color-l) + (var(--theme-base-primary-color-l) * -.3))); --theme-primary-custom-600: hsl(var(--theme-base-primary-color-h), var(--theme-base-primary-color-s), calc(var(--theme-base-primary-color-l) + (var(--theme-base-primary-color-l) * -.6))); --theme-primary-custom: var(--theme-primary-custom-400); --theme-button-color: initial; --theme-button-hover-color: initial; --theme-button-hover-background-color: initial; --theme-button-active-background-color: initial; --theme-button-selected-color: initial; --theme-button-selected-background-color: initial; --theme-button-outlined-border-color: initial; --theme-button-outlined-selected-border-color: initial; --theme-button-primary-color: initial; --theme-button-primary-active-color: initial; --theme-button-primary-hover-color: initial; --theme-button-primary-selected-color: initial; --theme-button-primary-background-color: initial; --theme-button-primary-active-background-color: initial; --theme-button-primary-hover-background-color: initial; --theme-button-primary-selected-background-color: initial; --theme-background-color: var(--white); --theme-background-position: top left; --theme-background-repeat: repeat; --theme-background-size: auto; --theme-background-attachment: auto; --theme-content-background-color: var(--white); --theme-content-border-color: var(--black-225); --theme-header-background-color: var(--theme-primary); --theme-header-background-position: center left; --theme-header-background-repeat: repeat; --theme-header-background-size: auto; --theme-header-background-border-bottom: 0; --theme-header-link-color: var(--theme-primary); --theme-header-sponsored-color: hsla(0,0%,100%,0.4); --theme-header-foreground-color: transparent; --theme-header-foreground-position: bottom right; --theme-header-foreground-repeat: no-repeat; --theme-header-foreground-size: auto; --theme-footer-background-color: hsl(210,8%,5%); --theme-footer-background-position: top left; --theme-footer-background-repeat: no-repeat; --theme-footer-background-size: auto; --theme-footer-background-border-top: 0; --theme-footer-title-color: var(--black-250); --theme-footer-text-color: var(--black-300); --theme-footer-link-color: var(--black-300); --theme-footer-link-color-hover: var(--black-200); --theme-footer-divider-color: var(--black-500); --theme-footer-padding-top: 0; --theme-footer-padding-bottom: 0; --theme-link-color: initial; --theme-link-color-hover: initial; --theme-link-color-visited: initial; --theme-tag-color: initial; --theme-tag-background-color: initial; --theme-tag-border-color: initial; --theme-tag-hover-color: initial; --theme-tag-hover-background-color: initial; --theme-tag-hover-border-color: initial; --theme-tag-required-color: var(--white); --theme-tag-required-background-color: var(--theme-secondary-500); --theme-tag-required-border-color: transparent; --theme-tag-required-hover-color: var(--white); --theme-tag-required-hover-background-color: var(--theme-secondary-400); --theme-tag-required-hover-border-color: transparent; --theme-body-font-family: var(--ff-sans); --theme-body-font-color: var(--black-600); --theme-post-title-font-family: var(--ff-sans); --theme-post-title-color: var(--theme-link-color); --theme-post-title-color-hover: var(--theme-link-color-hover); --theme-post-title-color-visited: var(--theme-link-color-visited); --theme-post-body-font-family: var(--ff-sans); --theme-post-owner-background-color: var(--theme-secondary-100); --theme-post-owner-new-background-color: var(--theme-secondary-200); --theme-topbar-bottom-border: 1px solid var(--black-225); text-align: left;&quot; class=&quot;default s-code-block&quot;&gt;&lt;code style=&quot;margin: 0px; padding: 0px; border: 0px; font-style: inherit; font-variant: inherit; font-weight: inherit; font-stretch: inherit; line-height: inherit; font-family: inherit; font-optical-sizing: inherit; font-kerning: inherit; font-feature-settings: inherit; font-variation-settings: inherit; font-size: var(--_pr-code-fs); vertical-align: baseline; box-sizing: inherit; background-color: transparent; white-space: inherit; --theme-base-primary-color-h: 27; --theme-base-primary-color-s: 89%; --theme-base-primary-color-l: 48%; --theme-primary-custom-100: hsl(var(--theme-base-primary-color-h), var(--theme-base-primary-color-s), calc(var(--theme-base-primary-color-l) + ((100% - var(--theme-base-primary-color-l)) * .9))); --theme-primary-custom-200: hsl(var(--theme-base-primary-color-h), var(--theme-base-primary-color-s), calc(var(--theme-base-primary-color-l) + ((100% - var(--theme-base-primary-color-l)) * .75))); --theme-primary-custom-300: hsl(var(--theme-base-primary-color-h), var(--theme-base-primary-color-s), calc(var(--theme-base-primary-color-l) + ((100% - var(--theme-base-primary-color-l)) * .5))); --theme-primary-custom-400: hsl(var(--theme-base-primary-color-h), var(--theme-base-primary-color-s), var(--theme-base-primary-color-l)); --theme-primary-custom-500: hsl(var(--theme-base-primary-color-h), var(--theme-base-primary-color-s), calc(var(--theme-base-primary-color-l) + (var(--theme-base-primary-color-l) * -.3))); --theme-primary-custom-600: hsl(var(--theme-base-primary-color-h), var(--theme-base-primary-color-s), calc(var(--theme-base-primary-color-l) + (var(--theme-base-primary-color-l) * -.6))); --theme-primary-custom: var(--theme-primary-custom-400); --theme-button-color: initial; --theme-button-hover-color: initial; --theme-button-hover-background-color: initial; --theme-button-active-background-color: initial; --theme-button-selected-color: initial; --theme-button-selected-background-color: initial; --theme-button-outlined-border-color: initial; --theme-button-outlined-selected-border-color: initial; --theme-button-primary-color: initial; --theme-button-primary-active-color: initial; --theme-button-primary-hover-color: initial; --theme-button-primary-selected-color: initial; --theme-button-primary-background-color: initial; --theme-button-primary-active-background-color: initial; --theme-button-primary-hover-background-color: initial; --theme-button-primary-selected-background-color: initial; --theme-background-color: var(--white); --theme-background-position: top left; --theme-background-repeat: repeat; --theme-background-size: auto; --theme-background-attachment: auto; --theme-content-background-color: var(--white); --theme-content-border-color: var(--black-225); --theme-header-background-color: var(--theme-primary); --theme-header-background-position: center left; --theme-header-background-repeat: repeat; --theme-header-background-size: auto; --theme-header-background-border-bottom: 0; --theme-header-link-color: var(--theme-primary); --theme-header-sponsored-color: hsla(0,0%,100%,0.4); --theme-header-foreground-color: transparent; --theme-header-foreground-position: bottom right; --theme-header-foreground-repeat: no-repeat; --theme-header-foreground-size: auto; --theme-footer-background-color: hsl(210,8%,5%); --theme-footer-background-position: top left; --theme-footer-background-repeat: no-repeat; --theme-footer-background-size: auto; --theme-footer-background-border-top: 0; --theme-footer-title-color: var(--black-250); --theme-footer-text-color: var(--black-300); --theme-footer-link-color: var(--black-300); --theme-footer-link-color-hover: var(--black-200); --theme-footer-divider-color: var(--black-500); --theme-footer-padding-top: 0; --theme-footer-padding-bottom: 0; --theme-link-color: initial; --theme-link-color-hover: initial; --theme-link-color-visited: initial; --theme-tag-color: initial; --theme-tag-background-color: initial; --theme-tag-border-color: initial; --theme-tag-hover-color: initial; --theme-tag-hover-background-color: initial; --theme-tag-hover-border-color: initial; --theme-tag-required-color: var(--white); --theme-tag-required-background-color: var(--theme-secondary-500); --theme-tag-required-border-color: transparent; --theme-tag-required-hover-color: var(--white); --theme-tag-required-hover-background-color: var(--theme-secondary-400); --theme-tag-required-hover-border-color: transparent; --theme-body-font-family: var(--ff-sans); --theme-body-font-color: var(--black-600); --theme-post-title-font-family: var(--ff-sans); --theme-post-title-color: var(--theme-link-color); --theme-post-title-color-hover: var(--theme-link-color-hover); --theme-post-title-color-visited: var(--theme-link-color-visited); --theme-post-body-font-family: var(--ff-sans); --theme-post-owner-background-color: var(--theme-secondary-100); --theme-post-owner-new-background-color: var(--theme-secondary-200); --theme-topbar-bottom-border: 1px solid var(--black-225);&quot; class=&quot;hljs language-sql&quot;&gt;MySQL JDBC Driver Registered&lt;span style=&quot;margin: 0px; padding: 0px; border: 0px; font-style: inherit; font-variant: inherit; font-weight: inherit; font-stretch: inherit; line-height: inherit; font-family: inherit; font-optical-sizing: inherit; font-kerning: inherit; font-feature-settings: inherit; font-variation-settings: inherit; font-size: 13px; vertical-align: baseline; box-sizing: inherit; --theme-base-primary-color-h: 27; --theme-base-primary-color-s: 89%; --theme-base-primary-color-l: 48%; --theme-primary-custom-100: hsl(var(--theme-base-primary-color-h), var(--theme-base-primary-color-s), calc(var(--theme-base-primary-color-l) + ((100% - var(--theme-base-primary-color-l)) * .9))); --theme-primary-custom-200: hsl(var(--theme-base-primary-color-h), var(--theme-base-primary-color-s), calc(var(--theme-base-primary-color-l) + ((100% - var(--theme-base-primary-color-l)) * .75))); --theme-primary-custom-300: hsl(var(--theme-base-primary-color-h), var(--theme-base-primary-color-s), calc(var(--theme-base-primary-color-l) + ((100% - var(--theme-base-primary-color-l)) * .5))); --theme-primary-custom-400: hsl(var(--theme-base-primary-color-h), var(--theme-base-primary-color-s), var(--theme-base-primary-color-l)); --theme-primary-custom-500: hsl(var(--theme-base-primary-color-h), var(--theme-base-primary-color-s), calc(var(--theme-base-primary-color-l) + (var(--theme-base-primary-color-l) * -.3))); --theme-primary-custom-600: hsl(var(--theme-base-primary-color-h), var(--theme-base-primary-color-s), calc(var(--theme-base-primary-color-l) + (var(--theme-base-primary-color-l) * -.6))); --theme-primary-custom: var(--theme-primary-custom-400); --theme-button-color: initial; --theme-button-hover-color: initial; --theme-button-hover-background-color: initial; --theme-button-active-background-color: initial; --theme-button-selected-color: initial; --theme-button-selected-background-color: initial; --theme-button-outlined-border-color: initial; --theme-button-outlined-selected-border-color: initial; --theme-button-primary-color: initial; --theme-button-primary-active-color: initial; --theme-button-primary-hover-color: initial; --theme-button-primary-selected-color: initial; --theme-button-primary-background-color: initial; --theme-button-primary-active-background-color: initial; --theme-button-primary-hover-background-color: initial; --theme-button-primary-selected-background-color: initial; --theme-background-color: var(--white); --theme-background-position: top left; --theme-background-repeat: repeat; --theme-background-size: auto; --theme-background-attachment: auto; --theme-content-background-color: var(--white); --theme-content-border-color: var(--black-225); --theme-header-background-color: var(--theme-primary); --theme-header-background-position: center left; --theme-header-background-repeat: repeat; --theme-header-background-size: auto; --theme-header-background-border-bottom: 0; --theme-header-link-color: var(--theme-primary); --theme-header-sponsored-color: hsla(0,0%,100%,0.4); --theme-header-foreground-color: transparent; --theme-header-foreground-position: bottom right; --theme-header-foreground-repeat: no-repeat; --theme-header-foreground-size: auto; --theme-footer-background-color: hsl(210,8%,5%); --theme-footer-background-position: top left; --theme-footer-background-repeat: no-repeat; --theme-footer-background-size: auto; --theme-footer-background-border-top: 0; --theme-footer-title-color: var(--black-250); --theme-footer-text-color: var(--black-300); --theme-footer-link-color: var(--black-300); --theme-footer-link-color-hover: var(--black-200); --theme-footer-divider-color: var(--black-500); --theme-footer-padding-top: 0; --theme-footer-padding-bottom: 0; --theme-link-color: initial; --theme-link-color-hover: initial; --theme-link-color-visited: initial; --theme-tag-color: initial; --theme-tag-background-color: initial; --theme-tag-border-color: initial; --theme-tag-hover-color: initial; --theme-tag-hover-background-color: initial; --theme-tag-hover-border-color: initial; --theme-tag-required-color: var(--white); --theme-tag-required-background-color: var(--theme-secondary-500); --theme-tag-required-border-color: transparent; --theme-tag-required-hover-color: var(--white); --theme-tag-required-hover-background-color: var(--theme-secondary-400); --theme-tag-required-hover-border-color: transparent; --theme-body-font-family: var(--ff-sans); --theme-body-font-color: var(--black-600); --theme-post-title-font-family: var(--ff-sans); --theme-post-title-color: var(--theme-link-color); --theme-post-title-color-hover: var(--theme-link-color-hover); --theme-post-title-color-visited: var(--theme-link-color-visited); --theme-post-body-font-family: var(--ff-sans); --theme-post-owner-background-color: var(--theme-secondary-100); --theme-post-owner-new-background-color: var(--theme-secondary-200); --theme-topbar-bottom-border: 1px solid var(--black-225);&quot; class=&quot;hljs-operator&quot;&gt;!&lt;/span&gt;&lt;br/&gt;Connection Failed&lt;span style=&quot;margin: 0px; padding: 0px; border: 0px; font-style: inherit; font-variant: inherit; font-weight: inherit; font-stretch: inherit; line-height: inherit; font-family: inherit; font-optical-sizing: inherit; font-kerning: inherit; font-feature-settings: inherit; font-variation-settings: inherit; font-size: 13px; vertical-align: baseline; box-sizing: inherit; --theme-base-primary-color-h: 27; --theme-base-primary-color-s: 89%; --theme-base-primary-color-l: 48%; --theme-primary-custom-100: hsl(var(--theme-base-primary-color-h), var(--theme-base-primary-color-s), calc(var(--theme-base-primary-color-l) + ((100% - var(--theme-base-primary-color-l)) * .9))); --theme-primary-custom-200: hsl(var(--theme-base-primary-color-h), var(--theme-base-primary-color-s), calc(var(--theme-base-primary-color-l) + ((100% - var(--theme-base-primary-color-l)) * .75))); --theme-primary-custom-300: hsl(var(--theme-base-primary-color-h), var(--theme-base-primary-color-s), calc(var(--theme-base-primary-color-l) + ((100% - var(--theme-base-primary-color-l)) * .5))); --theme-primary-custom-400: hsl(var(--theme-base-primary-color-h), var(--theme-base-primary-color-s), var(--theme-base-primary-color-l)); --theme-primary-custom-500: hsl(var(--theme-base-primary-color-h), var(--theme-base-primary-color-s), calc(var(--theme-base-primary-color-l) + (var(--theme-base-primary-color-l) * -.3))); --theme-primary-custom-600: hsl(var(--theme-base-primary-color-h), var(--theme-base-primary-color-s), calc(var(--theme-base-primary-color-l) + (var(--theme-base-primary-color-l) * -.6))); --theme-primary-custom: var(--theme-primary-custom-400); --theme-button-color: initial; --theme-button-hover-color: initial; --theme-button-hover-background-color: initial; --theme-button-active-background-color: initial; --theme-button-selected-color: initial; --theme-button-selected-background-color: initial; --theme-button-outlined-border-color: initial; --theme-button-outlined-selected-border-color: initial; --theme-button-primary-color: initial; --theme-button-primary-active-color: initial; --theme-button-primary-hover-color: initial; --theme-button-primary-selected-color: initial; --theme-button-primary-background-color: initial; --theme-button-primary-active-background-color: initial; --theme-button-primary-hover-background-color: initial; --theme-button-primary-selected-background-color: initial; --theme-background-color: var(--white); --theme-background-position: top left; --theme-background-repeat: repeat; --theme-background-size: auto; --theme-background-attachment: auto; --theme-content-background-color: var(--white); --theme-content-border-color: var(--black-225); --theme-header-background-color: var(--theme-primary); --theme-header-background-position: center left; --theme-header-background-repeat: repeat; --theme-header-background-size: auto; --theme-header-background-border-bottom: 0; --theme-header-link-color: var(--theme-primary); --theme-header-sponsored-color: hsla(0,0%,100%,0.4); --theme-header-foreground-color: transparent; --theme-header-foreground-position: bottom right; --theme-header-foreground-repeat: no-repeat; --theme-header-foreground-size: auto; --theme-footer-background-color: hsl(210,8%,5%); --theme-footer-background-position: top left; --theme-footer-background-repeat: no-repeat; --theme-footer-background-size: auto; --theme-footer-background-border-top: 0; --theme-footer-title-color: var(--black-250); --theme-footer-text-color: var(--black-300); --theme-footer-link-color: var(--black-300); --theme-footer-link-color-hover: var(--black-200); --theme-footer-divider-color: var(--black-500); --theme-footer-padding-top: 0; --theme-footer-padding-bottom: 0; --theme-link-color: initial; --theme-link-color-hover: initial; --theme-link-color-visited: initial; --theme-tag-color: initial; --theme-tag-background-color: initial; --theme-tag-border-color: initial; --theme-tag-hover-color: initial; --theme-tag-hover-background-color: initial; --theme-tag-hover-border-color: initial; --theme-tag-required-color: var(--white); --theme-tag-required-background-color: var(--theme-secondary-500); --theme-tag-required-border-color: transparent; --theme-tag-required-hover-color: var(--white); --theme-tag-required-hover-background-color: var(--theme-secondary-400); --theme-tag-required-hover-border-color: transparent; --theme-body-font-family: var(--ff-sans); --theme-body-font-color: var(--black-600); --theme-post-title-font-family: var(--ff-sans); --theme-post-title-color: var(--theme-link-color); --theme-post-title-color-hover: var(--theme-link-color-hover); --theme-post-title-color-visited: var(--theme-link-color-visited); --theme-post-body-font-family: var(--ff-sans); --theme-post-owner-background-color: var(--theme-secondary-100); --theme-post-owner-new-background-color: var(--theme-secondary-200); --theme-topbar-bottom-border: 1px solid var(--black-225);&quot; class=&quot;hljs-operator&quot;&gt;!&lt;/span&gt; &lt;span style=&quot;margin: 0px; padding: 0px; border: 0px; font-style: inherit; font-variant: inherit; font-weight: inherit; font-stretch: inherit; line-height: inherit; font-family: inherit; font-optical-sizing: inherit; font-kerning: inherit; font-feature-settings: inherit; font-variation-settings: inherit; font-size: 13px; vertical-align: baseline; box-sizing: inherit; --theme-base-primary-color-h: 27; --theme-base-primary-color-s: 89%; --theme-base-primary-color-l: 48%; --theme-primary-custom-100: hsl(var(--theme-base-primary-color-h), var(--theme-base-primary-color-s), calc(var(--theme-base-primary-color-l) + ((100% - var(--theme-base-primary-color-l)) * .9))); --theme-primary-custom-200: hsl(var(--theme-base-primary-color-h), var(--theme-base-primary-color-s), calc(var(--theme-base-primary-color-l) + ((100% - var(--theme-base-primary-color-l)) * .75))); --theme-primary-custom-300: hsl(var(--theme-base-primary-color-h), var(--theme-base-primary-color-s), calc(var(--theme-base-primary-color-l) + ((100% - var(--theme-base-primary-color-l)) * .5))); --theme-primary-custom-400: hsl(var(--theme-base-primary-color-h), var(--theme-base-primary-color-s), var(--theme-base-primary-color-l)); --theme-primary-custom-500: hsl(var(--theme-base-primary-color-h), var(--theme-base-primary-color-s), calc(var(--theme-base-primary-color-l) + (var(--theme-base-primary-color-l) * -.3))); --theme-primary-custom-600: hsl(var(--theme-base-primary-color-h), var(--theme-base-primary-color-s), calc(var(--theme-base-primary-color-l) + (var(--theme-base-primary-color-l) * -.6))); --theme-primary-custom: var(--theme-primary-custom-400); --theme-button-color: initial; --theme-button-hover-color: initial; --theme-button-hover-background-color: initial; --theme-button-active-background-color: initial; --theme-button-selected-color: initial; --theme-button-selected-background-color: initial; --theme-button-outlined-border-color: initial; --theme-button-outlined-selected-border-color: initial; --theme-button-primary-color: initial; --theme-button-primary-active-color: initial; --theme-button-primary-hover-color: initial; --theme-button-primary-selected-color: initial; --theme-button-primary-background-color: initial; --theme-button-primary-active-background-color: initial; --theme-button-primary-hover-background-color: initial; --theme-button-primary-selected-background-color: initial; --theme-background-color: var(--white); --theme-background-position: top left; --theme-background-repeat: repeat; --theme-background-size: auto; --theme-background-attachment: auto; --theme-content-background-color: var(--white); --theme-content-border-color: var(--black-225); --theme-header-background-color: var(--theme-primary); --theme-header-background-position: center left; --theme-header-background-repeat: repeat; --theme-header-background-size: auto; --theme-header-background-border-bottom: 0; --theme-header-link-color: var(--theme-primary); --theme-header-sponsored-color: hsla(0,0%,100%,0.4); --theme-header-foreground-color: transparent; --theme-header-foreground-position: bottom right; --theme-header-foreground-repeat: no-repeat; --theme-header-foreground-size: auto; --theme-footer-background-color: hsl(210,8%,5%); --theme-footer-background-position: top left; --theme-footer-background-repeat: no-repeat; --theme-footer-background-size: auto; --theme-footer-background-border-top: 0; --theme-footer-title-color: var(--black-250); --theme-footer-text-color: var(--black-300); --theme-footer-link-color: var(--black-300); --theme-footer-link-color-hover: var(--black-200); --theme-footer-divider-color: var(--black-500); --theme-footer-padding-top: 0; --theme-footer-padding-bottom: 0; --theme-link-color: initial; --theme-link-color-hover: initial; --theme-link-color-visited: initial; --theme-tag-color: initial; --theme-tag-background-color: initial; --theme-tag-border-color: initial; --theme-tag-hover-color: initial; --theme-tag-hover-background-color: initial; --theme-tag-hover-border-color: initial; --theme-tag-required-color: var(--white); --theme-tag-required-background-color: var(--theme-secondary-500); --theme-tag-required-border-color: transparent; --theme-tag-required-hover-color: var(--white); --theme-tag-required-hover-background-color: var(--theme-secondary-400); --theme-tag-required-hover-border-color: transparent; --theme-body-font-family: var(--ff-sans); --theme-body-font-color: var(--black-600); --theme-post-title-font-family: var(--ff-sans); --theme-post-title-color: var(--theme-link-color); --theme-post-title-color-hover: var(--theme-link-color-hover); --theme-post-title-color-visited: var(--theme-link-color-visited); --theme-post-body-font-family: var(--ff-sans); --theme-post-owner-background-color: var(--theme-secondary-100); --theme-post-owner-new-background-color: var(--theme-secondary-200); --theme-topbar-bottom-border: 1px solid var(--black-225); color: var(--highlight-keyword);&quot; class=&quot;hljs-keyword&quot;&gt;Check&lt;/span&gt; output console&lt;br/&gt;Connection closed &lt;span style=&quot;margin: 0px; padding: 0px; border: 0px; font-style: inherit; font-variant: inherit; font-weight: inherit; font-stretch: inherit; line-height: inherit; font-family: inherit; font-optical-sizing: inherit; font-kerning: inherit; font-feature-settings: inherit; font-variation-settings: inherit; font-size: 13px; vertical-align: baseline; box-sizing: inherit; --theme-base-primary-color-h: 27; --theme-base-primary-color-s: 89%; --theme-base-primary-color-l: 48%; --theme-primary-custom-100: hsl(var(--theme-base-primary-color-h), var(--theme-base-primary-color-s), calc(var(--theme-base-primary-color-l) + ((100% - var(--theme-base-primary-color-l)) * .9))); --theme-primary-custom-200: hsl(var(--theme-base-primary-color-h), var(--theme-base-primary-color-s), calc(var(--theme-base-primary-color-l) + ((100% - var(--theme-base-primary-color-l)) * .75))); --theme-primary-custom-300: hsl(var(--theme-base-primary-color-h), var(--theme-base-primary-color-s), calc(var(--theme-base-primary-color-l) + ((100% - var(--theme-base-primary-color-l)) * .5))); --theme-primary-custom-400: hsl(var(--theme-base-primary-color-h), var(--theme-base-primary-color-s), var(--theme-base-primary-color-l)); --theme-primary-custom-500: hsl(var(--theme-base-primary-color-h), var(--theme-base-primary-color-s), calc(var(--theme-base-primary-color-l) + (var(--theme-base-primary-color-l) * -.3))); --theme-primary-custom-600: hsl(var(--theme-base-primary-color-h), var(--theme-base-primary-color-s), calc(var(--theme-base-primary-color-l) + (var(--theme-base-primary-color-l) * -.6))); --theme-primary-custom: var(--theme-primary-custom-400); --theme-button-color: initial; --theme-button-hover-color: initial; --theme-button-hover-background-color: initial; --theme-button-active-background-color: initial; --theme-button-selected-color: initial; --theme-button-selected-background-color: initial; --theme-button-outlined-border-color: initial; --theme-button-outlined-selected-border-color: initial; --theme-button-primary-color: initial; --theme-button-primary-active-color: initial; --theme-button-primary-hover-color: initial; --theme-button-primary-selected-color: initial; --theme-button-primary-background-color: initial; --theme-button-primary-active-background-color: initial; --theme-button-primary-hover-background-color: initial; --theme-button-primary-selected-background-color: initial; --theme-background-color: var(--white); --theme-background-position: top left; --theme-background-repeat: repeat; --theme-background-size: auto; --theme-background-attachment: auto; --theme-content-background-color: var(--white); --theme-content-border-color: var(--black-225); --theme-header-background-color: var(--theme-primary); --theme-header-background-position: center left; --theme-header-background-repeat: repeat; --theme-header-background-size: auto; --theme-header-background-border-bottom: 0; --theme-header-link-color: var(--theme-primary); --theme-header-sponsored-color: hsla(0,0%,100%,0.4); --theme-header-foreground-color: transparent; --theme-header-foreground-position: bottom right; --theme-header-foreground-repeat: no-repeat; --theme-header-foreground-size: auto; --theme-footer-background-color: hsl(210,8%,5%); --theme-footer-background-position: top left; --theme-footer-background-repeat: no-repeat; --theme-footer-background-size: auto; --theme-footer-background-border-top: 0; --theme-footer-title-color: var(--black-250); --theme-footer-text-color: var(--black-300); --theme-footer-link-color: var(--black-300); --theme-footer-link-color-hover: var(--black-200); --theme-footer-divider-color: var(--black-500); --theme-footer-padding-top: 0; --theme-footer-padding-bottom: 0; --theme-link-color: initial; --theme-link-color-hover: initial; --theme-link-color-visited: initial; --theme-tag-color: initial; --theme-tag-background-color: initial; --theme-tag-border-color: initial; --theme-tag-hover-color: initial; --theme-tag-hover-background-color: initial; --theme-tag-hover-border-color: initial; --theme-tag-required-color: var(--white); --theme-tag-required-background-color: var(--theme-secondary-500); --theme-tag-required-border-color: transparent; --theme-tag-required-hover-color: var(--white); --theme-tag-required-hover-background-color: var(--theme-secondary-400); --theme-tag-required-hover-border-color: transparent; --theme-body-font-family: var(--ff-sans); --theme-body-font-color: var(--black-600); --theme-post-title-font-family: var(--ff-sans); --theme-post-title-color: var(--theme-link-color); --theme-post-title-color-hover: var(--theme-link-color-hover); --theme-post-title-color-visited: var(--theme-link-color-visited); --theme-post-body-font-family: var(--ff-sans); --theme-post-owner-background-color: var(--theme-secondary-100); --theme-post-owner-new-background-color: var(--theme-secondary-200); --theme-topbar-bottom-border: 1px solid var(--black-225);&quot; class=&quot;hljs-operator&quot;&gt;!&lt;/span&gt;&lt;span style=&quot;margin: 0px; padding: 0px; border: 0px; font-style: inherit; font-variant: inherit; font-weight: inherit; font-stretch: inherit; line-height: inherit; font-family: inherit; font-optical-sizing: inherit; font-kerning: inherit; font-feature-settings: inherit; font-variation-settings: inherit; font-size: 13px; vertical-align: baseline; box-sizing: inherit; --theme-base-primary-color-h: 27; --theme-base-primary-color-s: 89%; --theme-base-primary-color-l: 48%; --theme-primary-custom-100: hsl(var(--theme-base-primary-color-h), var(--theme-base-primary-color-s), calc(var(--theme-base-primary-color-l) + ((100% - var(--theme-base-primary-color-l)) * .9))); --theme-primary-custom-200: hsl(var(--theme-base-primary-color-h), var(--theme-base-primary-color-s), calc(var(--theme-base-primary-color-l) + ((100% - var(--theme-base-primary-color-l)) * .75))); --theme-primary-custom-300: hsl(var(--theme-base-primary-color-h), var(--theme-base-primary-color-s), calc(var(--theme-base-primary-color-l) + ((100% - var(--theme-base-primary-color-l)) * .5))); --theme-primary-custom-400: hsl(var(--theme-base-primary-color-h), var(--theme-base-primary-color-s), var(--theme-base-primary-color-l)); --theme-primary-custom-500: hsl(var(--theme-base-primary-color-h), var(--theme-base-primary-color-s), calc(var(--theme-base-primary-color-l) + (var(--theme-base-primary-color-l) * -.3))); --theme-primary-custom-600: hsl(var(--theme-base-primary-color-h), var(--theme-base-primary-color-s), calc(var(--theme-base-primary-color-l) + (var(--theme-base-primary-color-l) * -.6))); --theme-primary-custom: var(--theme-primary-custom-400); --theme-button-color: initial; --theme-button-hover-color: initial; --theme-button-hover-background-color: initial; --theme-button-active-background-color: initial; --theme-button-selected-color: initial; --theme-button-selected-background-color: initial; --theme-button-outlined-border-color: initial; --theme-button-outlined-selected-border-color: initial; --theme-button-primary-color: initial; --theme-button-primary-active-color: initial; --theme-button-primary-hover-color: initial; --theme-button-primary-selected-color: initial; --theme-button-primary-background-color: initial; --theme-button-primary-active-background-color: initial; --theme-button-primary-hover-background-color: initial; --theme-button-primary-selected-background-color: initial; --theme-background-color: var(--white); --theme-background-position: top left; --theme-background-repeat: repeat; --theme-background-size: auto; --theme-background-attachment: auto; --theme-content-background-color: var(--white); --theme-content-border-color: var(--black-225); --theme-header-background-color: var(--theme-primary); --theme-header-background-position: center left; --theme-header-background-repeat: repeat; --theme-header-background-size: auto; --theme-header-background-border-bottom: 0; --theme-header-link-color: var(--theme-primary); --theme-header-sponsored-color: hsla(0,0%,100%,0.4); --theme-header-foreground-color: transparent; --theme-header-foreground-position: bottom right; --theme-header-foreground-repeat: no-repeat; --theme-header-foreground-size: auto; --theme-footer-background-color: hsl(210,8%,5%); --theme-footer-background-position: top left; --theme-footer-background-repeat: no-repeat; --theme-footer-background-size: auto; --theme-footer-background-border-top: 0; --theme-footer-title-color: var(--black-250); --theme-footer-text-color: var(--black-300); --theme-footer-link-color: var(--black-300); --theme-footer-link-color-hover: var(--black-200); --theme-footer-divider-color: var(--black-500); --theme-footer-padding-top: 0; --theme-footer-padding-bottom: 0; --theme-link-color: initial; --theme-link-color-hover: initial; --theme-link-color-visited: initial; --theme-tag-color: initial; --theme-tag-background-color: initial; --theme-tag-border-color: initial; --theme-tag-hover-color: initial; --theme-tag-hover-background-color: initial; --theme-tag-hover-border-color: initial; --theme-tag-required-color: var(--white); --theme-tag-required-background-color: var(--theme-secondary-500); --theme-tag-required-border-color: transparent; --theme-tag-required-hover-color: var(--white); --theme-tag-required-hover-background-color: var(--theme-secondary-400); --theme-tag-required-hover-border-color: transparent; --theme-body-font-family: var(--ff-sans); --theme-body-font-color: var(--black-600); --theme-post-title-font-family: var(--ff-sans); --theme-post-title-color: var(--theme-link-color); --theme-post-title-color-hover: var(--theme-link-color-hover); --theme-post-title-color-visited: var(--theme-link-color-visited); --theme-post-body-font-family: var(--ff-sans); --theme-post-owner-background-color: var(--theme-secondary-100); --theme-post-owner-new-background-color: var(--theme-secondary-200); --theme-topbar-bottom-border: 1px solid var(--black-225);&quot; class=&quot;hljs-operator&quot;&gt;!&lt;/span&gt;&lt;/code&gt;&lt;/pre&gt;" style="text;html=1;align=center;verticalAlign=middle;whiteSpace=wrap;rounded=0;" parent="1" vertex="1">
          <mxGeometry x="1890" y="1430" width="310" height="30" as="geometry" />
        </mxCell>
        <mxCell id="FHuDHLUzKygGlAKaP5Ps-22" value="" style="shape=flexArrow;endArrow=classic;html=1;rounded=0;exitX=0.774;exitY=0;exitDx=0;exitDy=0;exitPerimeter=0;" parent="1" target="FHuDHLUzKygGlAKaP5Ps-23" edge="1">
          <mxGeometry width="50" height="50" relative="1" as="geometry">
            <mxPoint x="2179.9700000000003" y="1440" as="sourcePoint" />
            <mxPoint x="2240" y="1440" as="targetPoint" />
          </mxGeometry>
        </mxCell>
        <mxCell id="FHuDHLUzKygGlAKaP5Ps-23" value="This is due not downloading the JDBC driver" style="text;html=1;align=center;verticalAlign=middle;whiteSpace=wrap;rounded=0;" parent="1" vertex="1">
          <mxGeometry x="2270" y="1425" width="240" height="30" as="geometry" />
        </mxCell>
        <mxCell id="FHuDHLUzKygGlAKaP5Ps-24" value="&lt;span style=&quot;font-size: 16px;&quot;&gt;type&lt;/span&gt;&lt;div&gt;&lt;span style=&quot;font-size: 16px;&quot;&gt;ENUM[&lt;/span&gt;&lt;span style=&quot;background-color: rgb(255, 255, 255); color: rgb(95, 99, 104); font-family: arial, sans-serif; font-size: 14px; font-weight: bold; text-align: left;&quot;&gt;template ,&lt;/span&gt;&lt;span style=&quot;font-size: 16px; background-color: initial;&quot;&gt;student, solution]&lt;/span&gt;&lt;/div&gt;" style="rounded=0;whiteSpace=wrap;html=1;" parent="1" vertex="1">
          <mxGeometry x="785" y="365" width="160" height="30" as="geometry" />
        </mxCell>
        <mxCell id="a1lwO39-g4uqzTnm75bQ-2" value="&lt;span style=&quot;font-size: 16px;&quot;&gt;task_id&lt;/span&gt;" style="rounded=0;whiteSpace=wrap;html=1;" vertex="1" parent="1">
          <mxGeometry x="945" y="365" width="70" height="30" as="geometry" />
        </mxCell>
      </root>
    </mxGraphModel>
  </diagram>
  <diagram id="Ue4PC3XoN05lmi6K86q-" name="Page-2">
    <mxGraphModel dx="3176" dy="1816" grid="1" gridSize="10" guides="1" tooltips="1" connect="1" arrows="1" fold="1" page="1" pageScale="1" pageWidth="900" pageHeight="1600" math="0" shadow="0">
      <root>
        <mxCell id="0" />
        <mxCell id="1" parent="0" />
        <mxCell id="YA18D1m1C97BrsToR3eN-70" value="" style="group" vertex="1" connectable="0" parent="1">
          <mxGeometry x="250" y="90" width="1290" height="1410" as="geometry" />
        </mxCell>
        <mxCell id="YA18D1m1C97BrsToR3eN-1" style="edgeStyle=orthogonalEdgeStyle;rounded=0;orthogonalLoop=1;jettySize=auto;html=1;exitX=0.25;exitY=1;exitDx=0;exitDy=0;entryX=0.5;entryY=1;entryDx=0;entryDy=0;" edge="1" parent="YA18D1m1C97BrsToR3eN-70" source="YA18D1m1C97BrsToR3eN-2" target="YA18D1m1C97BrsToR3eN-49">
          <mxGeometry relative="1" as="geometry">
            <mxPoint x="722.1340206185567" y="1291.5126050420167" as="targetPoint" />
            <Array as="points">
              <mxPoint x="117.03092783505154" y="142.18487394957984" />
              <mxPoint y="142.18487394957984" />
              <mxPoint y="1410" />
              <mxPoint x="751.3917525773195" y="1410" />
            </Array>
          </mxGeometry>
        </mxCell>
        <mxCell id="YA18D1m1C97BrsToR3eN-2" value="&lt;font style=&quot;font-size: 16px;&quot;&gt;INS_ID&lt;/font&gt;" style="rounded=0;whiteSpace=wrap;html=1;" vertex="1" parent="YA18D1m1C97BrsToR3eN-70">
          <mxGeometry x="93.09278350515463" y="35.54621848739496" width="93.09278350515463" height="35.54621848739496" as="geometry" />
        </mxCell>
        <mxCell id="YA18D1m1C97BrsToR3eN-3" value="&lt;font style=&quot;font-size: 16px;&quot;&gt;F_name&lt;/font&gt;" style="rounded=0;whiteSpace=wrap;html=1;" vertex="1" parent="YA18D1m1C97BrsToR3eN-70">
          <mxGeometry x="186.18556701030926" y="35.54621848739496" width="93.09278350515463" height="35.54621848739496" as="geometry" />
        </mxCell>
        <mxCell id="YA18D1m1C97BrsToR3eN-4" value="&lt;font style=&quot;font-size: 16px;&quot;&gt;L_name&lt;/font&gt;" style="rounded=0;whiteSpace=wrap;html=1;" vertex="1" parent="YA18D1m1C97BrsToR3eN-70">
          <mxGeometry x="279.2783505154639" y="35.54621848739496" width="93.09278350515463" height="35.54621848739496" as="geometry" />
        </mxCell>
        <mxCell id="YA18D1m1C97BrsToR3eN-5" value="&lt;font style=&quot;font-size: 16px;&quot;&gt;sex&lt;/font&gt;" style="rounded=0;whiteSpace=wrap;html=1;" vertex="1" parent="YA18D1m1C97BrsToR3eN-70">
          <mxGeometry x="372.3711340206185" y="35.54621848739496" width="93.09278350515463" height="35.54621848739496" as="geometry" />
        </mxCell>
        <mxCell id="YA18D1m1C97BrsToR3eN-6" value="&lt;font style=&quot;font-size: 16px;&quot;&gt;pic&lt;/font&gt;" style="rounded=0;whiteSpace=wrap;html=1;" vertex="1" parent="YA18D1m1C97BrsToR3eN-70">
          <mxGeometry x="465.4639175257732" y="35.54621848739496" width="93.09278350515463" height="35.54621848739496" as="geometry" />
        </mxCell>
        <mxCell id="YA18D1m1C97BrsToR3eN-7" value="&lt;font style=&quot;font-size: 16px;&quot;&gt;password&lt;/font&gt;" style="rounded=0;whiteSpace=wrap;html=1;" vertex="1" parent="YA18D1m1C97BrsToR3eN-70">
          <mxGeometry x="558.5567010309278" y="35.54621848739496" width="106.3917525773196" height="35.54621848739496" as="geometry" />
        </mxCell>
        <mxCell id="YA18D1m1C97BrsToR3eN-8" value="&lt;font style=&quot;font-size: 16px;&quot;&gt;Phone&lt;/font&gt;" style="rounded=0;whiteSpace=wrap;html=1;" vertex="1" parent="YA18D1m1C97BrsToR3eN-70">
          <mxGeometry x="664.9484536082474" y="35.54621848739496" width="93.09278350515463" height="35.54621848739496" as="geometry" />
        </mxCell>
        <mxCell id="YA18D1m1C97BrsToR3eN-9" value="&lt;font style=&quot;font-size: 16px;&quot;&gt;Email&lt;/font&gt;" style="rounded=0;whiteSpace=wrap;html=1;" vertex="1" parent="YA18D1m1C97BrsToR3eN-70">
          <mxGeometry x="758.0412371134021" y="35.54621848739496" width="93.09278350515463" height="35.54621848739496" as="geometry" />
        </mxCell>
        <mxCell id="YA18D1m1C97BrsToR3eN-10" style="edgeStyle=orthogonalEdgeStyle;rounded=0;orthogonalLoop=1;jettySize=auto;html=1;entryX=0.5;entryY=1;entryDx=0;entryDy=0;exitX=0.25;exitY=1;exitDx=0;exitDy=0;" edge="1" parent="YA18D1m1C97BrsToR3eN-70" source="YA18D1m1C97BrsToR3eN-13" target="YA18D1m1C97BrsToR3eN-59">
          <mxGeometry relative="1" as="geometry">
            <mxPoint x="159.58762886597938" y="829.4117647058823" as="sourcePoint" />
          </mxGeometry>
        </mxCell>
        <mxCell id="YA18D1m1C97BrsToR3eN-11" style="edgeStyle=orthogonalEdgeStyle;rounded=0;orthogonalLoop=1;jettySize=auto;html=1;exitX=0.75;exitY=1;exitDx=0;exitDy=0;entryX=0.5;entryY=1;entryDx=0;entryDy=0;" edge="1" parent="YA18D1m1C97BrsToR3eN-70" source="YA18D1m1C97BrsToR3eN-13" target="YA18D1m1C97BrsToR3eN-65">
          <mxGeometry relative="1" as="geometry">
            <mxPoint x="265.97938144329896" y="995.2941176470589" as="targetPoint" />
            <Array as="points">
              <mxPoint x="176.8762886597938" y="876.8067226890757" />
              <mxPoint x="571.8556701030927" y="876.8067226890757" />
              <mxPoint x="571.8556701030927" y="983.4453781512605" />
              <mxPoint x="259.3298969072165" y="983.4453781512605" />
            </Array>
          </mxGeometry>
        </mxCell>
        <mxCell id="YA18D1m1C97BrsToR3eN-12" style="edgeStyle=orthogonalEdgeStyle;rounded=0;orthogonalLoop=1;jettySize=auto;html=1;exitX=0.5;exitY=1;exitDx=0;exitDy=0;entryX=0.5;entryY=1;entryDx=0;entryDy=0;" edge="1" parent="YA18D1m1C97BrsToR3eN-70" source="YA18D1m1C97BrsToR3eN-13" target="YA18D1m1C97BrsToR3eN-48">
          <mxGeometry relative="1" as="geometry">
            <Array as="points">
              <mxPoint x="152.93814432989691" y="841.2605042016806" />
              <mxPoint x="53.1958762886598" y="841.2605042016806" />
              <mxPoint x="53.1958762886598" y="1362.6050420168067" />
              <mxPoint x="631.7010309278351" y="1362.6050420168067" />
            </Array>
          </mxGeometry>
        </mxCell>
        <mxCell id="YA18D1m1C97BrsToR3eN-13" value="&lt;font style=&quot;font-size: 16px;&quot;&gt;Stu_ID&lt;/font&gt;" style="rounded=0;whiteSpace=wrap;html=1;" vertex="1" parent="YA18D1m1C97BrsToR3eN-70">
          <mxGeometry x="106.3917525773196" y="746.4705882352941" width="93.09278350515463" height="35.54621848739496" as="geometry" />
        </mxCell>
        <mxCell id="YA18D1m1C97BrsToR3eN-14" value="&lt;font style=&quot;font-size: 16px;&quot;&gt;F_name&lt;/font&gt;" style="rounded=0;whiteSpace=wrap;html=1;" vertex="1" parent="YA18D1m1C97BrsToR3eN-70">
          <mxGeometry x="199.48453608247422" y="746.4705882352941" width="93.09278350515463" height="35.54621848739496" as="geometry" />
        </mxCell>
        <mxCell id="YA18D1m1C97BrsToR3eN-15" value="&lt;font style=&quot;font-size: 16px;&quot;&gt;L_name&lt;/font&gt;" style="rounded=0;whiteSpace=wrap;html=1;" vertex="1" parent="YA18D1m1C97BrsToR3eN-70">
          <mxGeometry x="292.57731958762884" y="746.4705882352941" width="93.09278350515463" height="35.54621848739496" as="geometry" />
        </mxCell>
        <mxCell id="YA18D1m1C97BrsToR3eN-16" value="&lt;font style=&quot;font-size: 16px;&quot;&gt;sex&lt;/font&gt;" style="rounded=0;whiteSpace=wrap;html=1;" vertex="1" parent="YA18D1m1C97BrsToR3eN-70">
          <mxGeometry x="385.6701030927835" y="746.4705882352941" width="93.09278350515463" height="35.54621848739496" as="geometry" />
        </mxCell>
        <mxCell id="YA18D1m1C97BrsToR3eN-17" value="&lt;font style=&quot;font-size: 16px;&quot;&gt;pic&lt;/font&gt;" style="rounded=0;whiteSpace=wrap;html=1;" vertex="1" parent="YA18D1m1C97BrsToR3eN-70">
          <mxGeometry x="478.7628865979381" y="746.4705882352941" width="93.09278350515463" height="35.54621848739496" as="geometry" />
        </mxCell>
        <mxCell id="YA18D1m1C97BrsToR3eN-18" value="&lt;font style=&quot;font-size: 16px;&quot;&gt;password&lt;/font&gt;" style="rounded=0;whiteSpace=wrap;html=1;" vertex="1" parent="YA18D1m1C97BrsToR3eN-70">
          <mxGeometry x="571.8556701030927" y="746.4705882352941" width="106.3917525773196" height="35.54621848739496" as="geometry" />
        </mxCell>
        <mxCell id="YA18D1m1C97BrsToR3eN-19" value="&lt;font style=&quot;font-size: 16px;&quot;&gt;Phone&lt;/font&gt;" style="rounded=0;whiteSpace=wrap;html=1;" vertex="1" parent="YA18D1m1C97BrsToR3eN-70">
          <mxGeometry x="678.2474226804123" y="746.4705882352941" width="93.09278350515463" height="35.54621848739496" as="geometry" />
        </mxCell>
        <mxCell id="YA18D1m1C97BrsToR3eN-20" value="&lt;font style=&quot;font-size: 16px;&quot;&gt;Email&lt;/font&gt;" style="rounded=0;whiteSpace=wrap;html=1;" vertex="1" parent="YA18D1m1C97BrsToR3eN-70">
          <mxGeometry x="771.340206185567" y="746.4705882352941" width="93.09278350515463" height="35.54621848739496" as="geometry" />
        </mxCell>
        <mxCell id="YA18D1m1C97BrsToR3eN-21" style="edgeStyle=orthogonalEdgeStyle;rounded=0;orthogonalLoop=1;jettySize=auto;html=1;exitX=0.5;exitY=1;exitDx=0;exitDy=0;entryX=0.5;entryY=1;entryDx=0;entryDy=0;" edge="1" parent="YA18D1m1C97BrsToR3eN-70" source="YA18D1m1C97BrsToR3eN-22" target="YA18D1m1C97BrsToR3eN-62">
          <mxGeometry relative="1" as="geometry">
            <Array as="points">
              <mxPoint x="152.93814432989691" y="225.12605042016807" />
              <mxPoint x="152.93814432989691" y="260.672268907563" />
              <mxPoint x="877.7319587628866" y="260.672268907563" />
              <mxPoint x="877.7319587628866" y="367.3109243697479" />
              <mxPoint x="279.2783505154639" y="367.3109243697479" />
            </Array>
          </mxGeometry>
        </mxCell>
        <mxCell id="YA18D1m1C97BrsToR3eN-22" value="&lt;font style=&quot;font-size: 16px;&quot;&gt;Adm_ID&lt;/font&gt;" style="rounded=0;whiteSpace=wrap;html=1;" vertex="1" parent="YA18D1m1C97BrsToR3eN-70">
          <mxGeometry x="93.09278350515463" y="189.5798319327731" width="93.09278350515463" height="35.54621848739496" as="geometry" />
        </mxCell>
        <mxCell id="YA18D1m1C97BrsToR3eN-23" value="&lt;font style=&quot;font-size: 16px;&quot;&gt;F_name&lt;/font&gt;" style="rounded=0;whiteSpace=wrap;html=1;" vertex="1" parent="YA18D1m1C97BrsToR3eN-70">
          <mxGeometry x="186.18556701030926" y="189.5798319327731" width="93.09278350515463" height="35.54621848739496" as="geometry" />
        </mxCell>
        <mxCell id="YA18D1m1C97BrsToR3eN-24" value="&lt;font style=&quot;font-size: 16px;&quot;&gt;L_name&lt;/font&gt;" style="rounded=0;whiteSpace=wrap;html=1;" vertex="1" parent="YA18D1m1C97BrsToR3eN-70">
          <mxGeometry x="279.2783505154639" y="189.5798319327731" width="93.09278350515463" height="35.54621848739496" as="geometry" />
        </mxCell>
        <mxCell id="YA18D1m1C97BrsToR3eN-25" value="&lt;font style=&quot;font-size: 16px;&quot;&gt;sex&lt;/font&gt;" style="rounded=0;whiteSpace=wrap;html=1;" vertex="1" parent="YA18D1m1C97BrsToR3eN-70">
          <mxGeometry x="372.3711340206185" y="189.5798319327731" width="93.09278350515463" height="35.54621848739496" as="geometry" />
        </mxCell>
        <mxCell id="YA18D1m1C97BrsToR3eN-26" value="&lt;font style=&quot;font-size: 16px;&quot;&gt;pic&lt;/font&gt;" style="rounded=0;whiteSpace=wrap;html=1;" vertex="1" parent="YA18D1m1C97BrsToR3eN-70">
          <mxGeometry x="465.4639175257732" y="189.5798319327731" width="93.09278350515463" height="35.54621848739496" as="geometry" />
        </mxCell>
        <mxCell id="YA18D1m1C97BrsToR3eN-27" value="&lt;font style=&quot;font-size: 16px;&quot;&gt;password&lt;/font&gt;" style="rounded=0;whiteSpace=wrap;html=1;" vertex="1" parent="YA18D1m1C97BrsToR3eN-70">
          <mxGeometry x="558.5567010309278" y="189.5798319327731" width="106.3917525773196" height="35.54621848739496" as="geometry" />
        </mxCell>
        <mxCell id="YA18D1m1C97BrsToR3eN-28" value="&lt;font style=&quot;font-size: 16px;&quot;&gt;Phone&lt;/font&gt;" style="rounded=0;whiteSpace=wrap;html=1;" vertex="1" parent="YA18D1m1C97BrsToR3eN-70">
          <mxGeometry x="664.9484536082474" y="189.5798319327731" width="93.09278350515463" height="35.54621848739496" as="geometry" />
        </mxCell>
        <mxCell id="YA18D1m1C97BrsToR3eN-29" value="&lt;font style=&quot;font-size: 16px;&quot;&gt;Email&lt;/font&gt;" style="rounded=0;whiteSpace=wrap;html=1;" vertex="1" parent="YA18D1m1C97BrsToR3eN-70">
          <mxGeometry x="758.0412371134021" y="189.5798319327731" width="93.09278350515463" height="35.54621848739496" as="geometry" />
        </mxCell>
        <mxCell id="YA18D1m1C97BrsToR3eN-30" style="edgeStyle=orthogonalEdgeStyle;rounded=0;orthogonalLoop=1;jettySize=auto;html=1;entryX=0.25;entryY=1;entryDx=0;entryDy=0;exitX=0.25;exitY=1;exitDx=0;exitDy=0;" edge="1" parent="YA18D1m1C97BrsToR3eN-70" source="YA18D1m1C97BrsToR3eN-33" target="YA18D1m1C97BrsToR3eN-63">
          <mxGeometry relative="1" as="geometry">
            <mxPoint x="172.88659793814435" y="509.4957983193278" as="sourcePoint" />
            <Array as="points">
              <mxPoint x="136.97938144329896" y="509.4957983193278" />
              <mxPoint x="93.09278350515463" y="509.4957983193278" />
              <mxPoint x="93.09278350515463" y="396.9327731092437" />
              <mxPoint x="143.62886597938146" y="396.9327731092437" />
            </Array>
          </mxGeometry>
        </mxCell>
        <mxCell id="YA18D1m1C97BrsToR3eN-31" style="edgeStyle=orthogonalEdgeStyle;rounded=0;orthogonalLoop=1;jettySize=auto;html=1;exitX=0.5;exitY=1;exitDx=0;exitDy=0;entryX=0.5;entryY=1;entryDx=0;entryDy=0;" edge="1" parent="YA18D1m1C97BrsToR3eN-70" source="YA18D1m1C97BrsToR3eN-33" target="YA18D1m1C97BrsToR3eN-60">
          <mxGeometry relative="1" as="geometry">
            <mxPoint x="252.68041237113403" y="521.344537815126" as="sourcePoint" />
            <mxPoint x="239.38144329896906" y="675.3781512605043" as="targetPoint" />
            <Array as="points">
              <mxPoint x="166.23711340206185" y="568.7394957983194" />
              <mxPoint x="372.3711340206185" y="568.7394957983194" />
              <mxPoint x="372.3711340206185" y="669.453781512605" />
              <mxPoint x="259.3298969072165" y="669.453781512605" />
            </Array>
          </mxGeometry>
        </mxCell>
        <mxCell id="YA18D1m1C97BrsToR3eN-32" style="edgeStyle=orthogonalEdgeStyle;rounded=0;orthogonalLoop=1;jettySize=auto;html=1;exitX=0.75;exitY=1;exitDx=0;exitDy=0;entryX=0.5;entryY=1;entryDx=0;entryDy=0;" edge="1" parent="YA18D1m1C97BrsToR3eN-70" source="YA18D1m1C97BrsToR3eN-33" target="YA18D1m1C97BrsToR3eN-68">
          <mxGeometry relative="1" as="geometry">
            <mxPoint x="1316.5979381443296" y="1255.966386554622" as="targetPoint" />
            <Array as="points">
              <mxPoint x="196.8247422680412" y="545.0420168067227" />
              <mxPoint x="1290" y="545.0420168067227" />
              <mxPoint x="1290" y="1161.1764705882354" />
              <mxPoint x="1176.958762886598" y="1161.1764705882354" />
            </Array>
          </mxGeometry>
        </mxCell>
        <mxCell id="YA18D1m1C97BrsToR3eN-33" value="&lt;span style=&quot;font-size: 16px;&quot;&gt;course_ID&lt;/span&gt;" style="rounded=0;whiteSpace=wrap;html=1;" vertex="1" parent="YA18D1m1C97BrsToR3eN-70">
          <mxGeometry x="106.3917525773196" y="450.25210084033614" width="119.69072164948453" height="35.54621848739496" as="geometry" />
        </mxCell>
        <mxCell id="YA18D1m1C97BrsToR3eN-34" value="&lt;span style=&quot;font-size: 16px;&quot;&gt;name&lt;/span&gt;" style="rounded=0;whiteSpace=wrap;html=1;" vertex="1" parent="YA18D1m1C97BrsToR3eN-70">
          <mxGeometry x="226.0824742268041" y="450.25210084033614" width="93.09278350515463" height="35.54621848739496" as="geometry" />
        </mxCell>
        <mxCell id="YA18D1m1C97BrsToR3eN-35" value="&lt;span style=&quot;font-size: 16px;&quot;&gt;task_name&lt;/span&gt;" style="rounded=0;whiteSpace=wrap;html=1;" vertex="1" parent="YA18D1m1C97BrsToR3eN-70">
          <mxGeometry x="212.7835051546392" y="1090.0840336134454" width="119.69072164948453" height="35.54621848739496" as="geometry" />
        </mxCell>
        <mxCell id="YA18D1m1C97BrsToR3eN-36" style="edgeStyle=orthogonalEdgeStyle;rounded=0;orthogonalLoop=1;jettySize=auto;html=1;exitX=0.5;exitY=1;exitDx=0;exitDy=0;entryX=0.5;entryY=1;entryDx=0;entryDy=0;" edge="1" parent="YA18D1m1C97BrsToR3eN-70" source="YA18D1m1C97BrsToR3eN-38" target="YA18D1m1C97BrsToR3eN-66">
          <mxGeometry relative="1" as="geometry" />
        </mxCell>
        <mxCell id="YA18D1m1C97BrsToR3eN-37" style="edgeStyle=orthogonalEdgeStyle;rounded=0;orthogonalLoop=1;jettySize=auto;html=1;exitX=0.75;exitY=1;exitDx=0;exitDy=0;entryX=0.5;entryY=1;entryDx=0;entryDy=0;" edge="1" parent="YA18D1m1C97BrsToR3eN-70" source="YA18D1m1C97BrsToR3eN-38" target="YA18D1m1C97BrsToR3eN-54">
          <mxGeometry relative="1" as="geometry">
            <mxPoint x="864.4329896907216" y="1315.2100840336134" as="targetPoint" />
            <Array as="points">
              <mxPoint x="190.17525773195877" y="1184.873949579832" />
              <mxPoint x="930.9278350515464" y="1184.873949579832" />
              <mxPoint x="930.9278350515464" y="1315.2100840336134" />
              <mxPoint x="857.7835051546391" y="1315.2100840336134" />
            </Array>
          </mxGeometry>
        </mxCell>
        <mxCell id="YA18D1m1C97BrsToR3eN-38" value="&lt;span style=&quot;font-size: 16px;&quot;&gt;task_id&lt;/span&gt;" style="rounded=0;whiteSpace=wrap;html=1;" vertex="1" parent="YA18D1m1C97BrsToR3eN-70">
          <mxGeometry x="119.69072164948453" y="1090.0840336134454" width="93.09278350515463" height="35.54621848739496" as="geometry" />
        </mxCell>
        <mxCell id="YA18D1m1C97BrsToR3eN-39" value="&lt;span style=&quot;font-size: 16px;&quot;&gt;description&lt;/span&gt;" style="rounded=0;whiteSpace=wrap;html=1;" vertex="1" parent="YA18D1m1C97BrsToR3eN-70">
          <mxGeometry x="332.4742268041237" y="1090.0840336134454" width="119.69072164948453" height="35.54621848739496" as="geometry" />
        </mxCell>
        <mxCell id="YA18D1m1C97BrsToR3eN-40" value="&lt;span style=&quot;font-size: 16px;&quot;&gt;hasMultiTries&lt;/span&gt;" style="rounded=0;whiteSpace=wrap;html=1;" vertex="1" parent="YA18D1m1C97BrsToR3eN-70">
          <mxGeometry x="452.1649484536082" y="1090.0840336134454" width="199.48453608247422" height="35.54621848739496" as="geometry" />
        </mxCell>
        <mxCell id="YA18D1m1C97BrsToR3eN-41" value="&lt;span style=&quot;font-size: 16px;&quot;&gt;start_date&lt;/span&gt;" style="rounded=0;whiteSpace=wrap;html=1;" vertex="1" parent="YA18D1m1C97BrsToR3eN-70">
          <mxGeometry x="851.1340206185567" y="1090.0840336134454" width="132.98969072164948" height="35.54621848739496" as="geometry" />
        </mxCell>
        <mxCell id="YA18D1m1C97BrsToR3eN-42" value="&lt;span style=&quot;font-size: 16px;&quot;&gt;end_date&lt;/span&gt;" style="rounded=0;whiteSpace=wrap;html=1;" vertex="1" parent="YA18D1m1C97BrsToR3eN-70">
          <mxGeometry x="984.1237113402061" y="1090.0840336134454" width="132.98969072164948" height="35.54621848739496" as="geometry" />
        </mxCell>
        <mxCell id="YA18D1m1C97BrsToR3eN-43" value="&lt;span style=&quot;font-size: 16px;&quot;&gt;task_max_grade&lt;/span&gt;" style="rounded=0;whiteSpace=wrap;html=1;" vertex="1" parent="YA18D1m1C97BrsToR3eN-70">
          <mxGeometry x="651.6494845360825" y="1090.0840336134454" width="199.48453608247422" height="35.54621848739496" as="geometry" />
        </mxCell>
        <mxCell id="YA18D1m1C97BrsToR3eN-44" value="&lt;span style=&quot;font-size: 16px;&quot;&gt;answer_url&lt;/span&gt;" style="rounded=0;whiteSpace=wrap;html=1;" vertex="1" parent="YA18D1m1C97BrsToR3eN-70">
          <mxGeometry x="212.7835051546392" y="1238.1932773109245" width="119.69072164948453" height="35.54621848739496" as="geometry" />
        </mxCell>
        <mxCell id="YA18D1m1C97BrsToR3eN-45" value="&lt;span style=&quot;font-size: 16px;&quot;&gt;fed_id&lt;/span&gt;" style="rounded=0;whiteSpace=wrap;html=1;" vertex="1" parent="YA18D1m1C97BrsToR3eN-70">
          <mxGeometry x="119.69072164948453" y="1238.1932773109245" width="93.09278350515463" height="35.54621848739496" as="geometry" />
        </mxCell>
        <mxCell id="YA18D1m1C97BrsToR3eN-46" value="&lt;span style=&quot;font-size: 16px;&quot;&gt;date&lt;/span&gt;" style="rounded=0;whiteSpace=wrap;html=1;" vertex="1" parent="YA18D1m1C97BrsToR3eN-70">
          <mxGeometry x="332.4742268041237" y="1238.1932773109245" width="119.69072164948453" height="35.54621848739496" as="geometry" />
        </mxCell>
        <mxCell id="YA18D1m1C97BrsToR3eN-47" value="&lt;span style=&quot;font-size: 16px;&quot;&gt;description&lt;/span&gt;" style="rounded=0;whiteSpace=wrap;html=1;" vertex="1" parent="YA18D1m1C97BrsToR3eN-70">
          <mxGeometry x="452.1649484536082" y="1238.1932773109245" width="119.69072164948453" height="35.54621848739496" as="geometry" />
        </mxCell>
        <mxCell id="YA18D1m1C97BrsToR3eN-48" value="&lt;span style=&quot;font-size: 16px;&quot;&gt;stu_id&lt;/span&gt;" style="rounded=0;whiteSpace=wrap;html=1;" vertex="1" parent="YA18D1m1C97BrsToR3eN-70">
          <mxGeometry x="571.8556701030927" y="1238.1932773109245" width="119.69072164948453" height="35.54621848739496" as="geometry" />
        </mxCell>
        <mxCell id="YA18D1m1C97BrsToR3eN-49" value="&lt;span style=&quot;font-size: 16px;&quot;&gt;ins_id&lt;/span&gt;" style="rounded=0;whiteSpace=wrap;html=1;" vertex="1" parent="YA18D1m1C97BrsToR3eN-70">
          <mxGeometry x="691.5463917525774" y="1238.1932773109245" width="119.69072164948453" height="35.54621848739496" as="geometry" />
        </mxCell>
        <mxCell id="YA18D1m1C97BrsToR3eN-50" value="&lt;span style=&quot;color: rgb(61, 71, 82);&quot;&gt;&lt;font style=&quot;font-size: 19px;&quot;&gt;Instructor&lt;/font&gt;&lt;/span&gt;" style="text;html=1;align=left;verticalAlign=middle;whiteSpace=wrap;rounded=0;fontStyle=1" vertex="1" parent="YA18D1m1C97BrsToR3eN-70">
          <mxGeometry x="93.09278350515463" width="132.98969072164948" height="35.54621848739496" as="geometry" />
        </mxCell>
        <mxCell id="YA18D1m1C97BrsToR3eN-51" value="&lt;span style=&quot;color: rgb(61, 71, 82);&quot;&gt;&lt;font style=&quot;font-size: 19px;&quot;&gt;Student&lt;/font&gt;&lt;/span&gt;" style="text;html=1;align=center;verticalAlign=middle;whiteSpace=wrap;rounded=0;fontStyle=1" vertex="1" parent="YA18D1m1C97BrsToR3eN-70">
          <mxGeometry x="86.44329896907217" y="710.9243697478992" width="132.98969072164948" height="35.54621848739496" as="geometry" />
        </mxCell>
        <mxCell id="YA18D1m1C97BrsToR3eN-52" value="&lt;span style=&quot;color: rgb(61, 71, 82);&quot;&gt;&lt;font style=&quot;font-size: 19px;&quot;&gt;Admin&lt;/font&gt;&lt;/span&gt;" style="text;html=1;align=left;verticalAlign=middle;whiteSpace=wrap;rounded=0;fontStyle=1" vertex="1" parent="YA18D1m1C97BrsToR3eN-70">
          <mxGeometry x="93.09278350515463" y="154.03361344537817" width="106.3917525773196" height="35.54621848739496" as="geometry" />
        </mxCell>
        <mxCell id="YA18D1m1C97BrsToR3eN-53" value="&lt;font style=&quot;font-size: 16px;&quot;&gt;INS_ID&lt;/font&gt;" style="rounded=0;whiteSpace=wrap;html=1;" vertex="1" parent="YA18D1m1C97BrsToR3eN-70">
          <mxGeometry x="319.17525773195877" y="450.25210084033614" width="93.09278350515463" height="35.54621848739496" as="geometry" />
        </mxCell>
        <mxCell id="YA18D1m1C97BrsToR3eN-54" value="&lt;span style=&quot;font-size: 16px;&quot;&gt;task_id&lt;/span&gt;" style="rounded=0;whiteSpace=wrap;html=1;" vertex="1" parent="YA18D1m1C97BrsToR3eN-70">
          <mxGeometry x="811.2371134020618" y="1238.1932773109245" width="93.09278350515463" height="35.54621848739496" as="geometry" />
        </mxCell>
        <mxCell id="YA18D1m1C97BrsToR3eN-55" value="&lt;span style=&quot;color: rgb(61, 71, 82);&quot;&gt;&lt;font style=&quot;font-size: 19px;&quot;&gt;Task&lt;/font&gt;&lt;/span&gt;" style="text;html=1;align=left;verticalAlign=middle;whiteSpace=wrap;rounded=0;fontStyle=1" vertex="1" parent="YA18D1m1C97BrsToR3eN-70">
          <mxGeometry x="119.69072164948453" y="1054.5378151260504" width="93.09278350515463" height="35.54621848739496" as="geometry" />
        </mxCell>
        <mxCell id="YA18D1m1C97BrsToR3eN-56" value="&lt;span style=&quot;color: rgb(61, 71, 82);&quot;&gt;&lt;font style=&quot;font-size: 19px;&quot;&gt;Course&lt;/font&gt;&lt;/span&gt;" style="text;html=1;align=center;verticalAlign=middle;whiteSpace=wrap;rounded=0;fontStyle=1" vertex="1" parent="YA18D1m1C97BrsToR3eN-70">
          <mxGeometry x="86.44329896907217" y="414.70588235294116" width="132.98969072164948" height="35.54621848739496" as="geometry" />
        </mxCell>
        <mxCell id="YA18D1m1C97BrsToR3eN-57" value="&lt;span style=&quot;font-size: 15px;&quot;&gt;&lt;font face=&quot;Helvetica&quot;&gt;stu_grade&lt;/font&gt;&lt;/span&gt;" style="rounded=0;whiteSpace=wrap;html=1;" vertex="1" parent="YA18D1m1C97BrsToR3eN-70">
          <mxGeometry x="305.87628865979383" y="924.2016806722689" width="119.69072164948453" height="35.54621848739496" as="geometry" />
        </mxCell>
        <mxCell id="YA18D1m1C97BrsToR3eN-58" value="&lt;span style=&quot;color: rgb(61, 71, 82);&quot;&gt;&lt;font style=&quot;font-size: 19px;&quot;&gt;Feedback&lt;/font&gt;&lt;/span&gt;" style="text;html=1;align=center;verticalAlign=middle;whiteSpace=wrap;rounded=0;fontStyle=1" vertex="1" parent="YA18D1m1C97BrsToR3eN-70">
          <mxGeometry x="113.04123711340205" y="1196.7226890756301" width="132.98969072164948" height="35.54621848739496" as="geometry" />
        </mxCell>
        <mxCell id="YA18D1m1C97BrsToR3eN-59" value="&lt;font style=&quot;font-size: 16px;&quot;&gt;Stu_ID&lt;/font&gt;" style="rounded=0;whiteSpace=wrap;html=1;" vertex="1" parent="YA18D1m1C97BrsToR3eN-70">
          <mxGeometry x="106.3917525773196" y="610.2100840336135" width="93.09278350515463" height="35.54621848739496" as="geometry" />
        </mxCell>
        <mxCell id="YA18D1m1C97BrsToR3eN-60" value="&lt;span style=&quot;font-size: 16px;&quot;&gt;course_ID&lt;/span&gt;" style="rounded=0;whiteSpace=wrap;html=1;" vertex="1" parent="YA18D1m1C97BrsToR3eN-70">
          <mxGeometry x="199.48453608247422" y="610.2100840336135" width="119.69072164948453" height="35.54621848739496" as="geometry" />
        </mxCell>
        <mxCell id="YA18D1m1C97BrsToR3eN-61" value="&lt;span style=&quot;color: rgb(61, 71, 82);&quot;&gt;&lt;font style=&quot;font-size: 19px;&quot;&gt;StudentTakeCourse&lt;/font&gt;&lt;/span&gt;" style="text;html=1;align=left;verticalAlign=middle;whiteSpace=wrap;rounded=0;fontStyle=1" vertex="1" parent="YA18D1m1C97BrsToR3eN-70">
          <mxGeometry x="106.3917525773196" y="574.6638655462185" width="239.38144329896906" height="35.54621848739496" as="geometry" />
        </mxCell>
        <mxCell id="YA18D1m1C97BrsToR3eN-62" value="&lt;font style=&quot;font-size: 16px;&quot;&gt;Adm_ID&lt;/font&gt;" style="rounded=0;whiteSpace=wrap;html=1;" vertex="1" parent="YA18D1m1C97BrsToR3eN-70">
          <mxGeometry x="232.7319587628866" y="308.06722689075633" width="93.09278350515463" height="35.54621848739496" as="geometry" />
        </mxCell>
        <mxCell id="YA18D1m1C97BrsToR3eN-63" value="&lt;span style=&quot;font-size: 16px;&quot;&gt;course_ID&lt;/span&gt;" style="rounded=0;whiteSpace=wrap;html=1;" vertex="1" parent="YA18D1m1C97BrsToR3eN-70">
          <mxGeometry x="113.04123711340205" y="308.06722689075633" width="119.69072164948453" height="35.54621848739496" as="geometry" />
        </mxCell>
        <mxCell id="YA18D1m1C97BrsToR3eN-64" value="&lt;span style=&quot;color: rgb(61, 71, 82);&quot;&gt;&lt;font style=&quot;font-size: 19px;&quot;&gt;AdminProvideCourse&lt;/font&gt;&lt;/span&gt;" style="text;html=1;align=left;verticalAlign=middle;whiteSpace=wrap;rounded=0;fontStyle=1" vertex="1" parent="YA18D1m1C97BrsToR3eN-70">
          <mxGeometry x="106.3917525773196" y="272.52100840336135" width="279.2783505154639" height="35.54621848739496" as="geometry" />
        </mxCell>
        <mxCell id="YA18D1m1C97BrsToR3eN-65" value="&lt;font style=&quot;font-size: 16px;&quot;&gt;Stu_ID&lt;/font&gt;" style="rounded=0;whiteSpace=wrap;html=1;" vertex="1" parent="YA18D1m1C97BrsToR3eN-70">
          <mxGeometry x="212.7835051546392" y="924.2016806722689" width="93.09278350515463" height="35.54621848739496" as="geometry" />
        </mxCell>
        <mxCell id="YA18D1m1C97BrsToR3eN-66" value="&lt;span style=&quot;font-size: 16px;&quot;&gt;task_id&lt;/span&gt;" style="rounded=0;whiteSpace=wrap;html=1;" vertex="1" parent="YA18D1m1C97BrsToR3eN-70">
          <mxGeometry x="119.69072164948453" y="924.2016806722689" width="93.09278350515463" height="35.54621848739496" as="geometry" />
        </mxCell>
        <mxCell id="YA18D1m1C97BrsToR3eN-67" value="&lt;span style=&quot;color: rgb(61, 71, 82);&quot;&gt;&lt;font style=&quot;font-size: 19px;&quot;&gt;StudentPreformeTask&lt;/font&gt;&lt;/span&gt;" style="text;html=1;align=left;verticalAlign=middle;whiteSpace=wrap;rounded=0;fontStyle=1" vertex="1" parent="YA18D1m1C97BrsToR3eN-70">
          <mxGeometry x="113.04123711340205" y="888.655462184874" width="279.2783505154639" height="35.54621848739496" as="geometry" />
        </mxCell>
        <mxCell id="YA18D1m1C97BrsToR3eN-68" value="&lt;span style=&quot;font-size: 16px;&quot;&gt;course_ID&lt;/span&gt;" style="rounded=0;whiteSpace=wrap;html=1;" vertex="1" parent="YA18D1m1C97BrsToR3eN-70">
          <mxGeometry x="1117.1134020618556" y="1090.0840336134454" width="119.69072164948453" height="35.54621848739496" as="geometry" />
        </mxCell>
        <mxCell id="YA18D1m1C97BrsToR3eN-69" value="&lt;span style=&quot;font-size: 15px;&quot;&gt;&lt;font face=&quot;Helvetica&quot; style=&quot;&quot;&gt;submit_date&lt;/font&gt;&lt;/span&gt;" style="rounded=0;whiteSpace=wrap;html=1;fontColor=default;" vertex="1" parent="YA18D1m1C97BrsToR3eN-70">
          <mxGeometry x="425.5670103092784" y="924.2016806722689" width="119.69072164948453" height="35.54621848739496" as="geometry" />
        </mxCell>
      </root>
    </mxGraphModel>
  </diagram>
  <diagram id="0_6i-QdMC3MGxuXskBoY" name="Page-3">
    <mxGraphModel dx="2138" dy="945" grid="1" gridSize="10" guides="1" tooltips="1" connect="1" arrows="1" fold="1" page="1" pageScale="1" pageWidth="900" pageHeight="1600" math="0" shadow="0">
      <root>
        <mxCell id="0" />
        <mxCell id="1" parent="0" />
        <mxCell id="yMJn0GiZVWK62FaD5o9r-70" value="" style="group" parent="1" vertex="1" connectable="0">
          <mxGeometry x="140" y="90" width="1540" height="1390" as="geometry" />
        </mxCell>
        <mxCell id="yMJn0GiZVWK62FaD5o9r-1" style="edgeStyle=orthogonalEdgeStyle;rounded=0;orthogonalLoop=1;jettySize=auto;html=1;exitX=0.25;exitY=1;exitDx=0;exitDy=0;entryX=0.5;entryY=1;entryDx=0;entryDy=0;" parent="yMJn0GiZVWK62FaD5o9r-70" source="yMJn0GiZVWK62FaD5o9r-2" target="yMJn0GiZVWK62FaD5o9r-38" edge="1">
          <mxGeometry relative="1" as="geometry">
            <mxPoint x="638.3358778625953" y="1262.477064220183" as="targetPoint" />
            <Array as="points">
              <mxPoint x="103.45038167938931" y="114.77064220183483" />
              <mxPoint y="114.77064220183483" />
              <mxPoint y="1389.9999999999998" />
              <mxPoint x="664.1984732824426" y="1389.9999999999998" />
            </Array>
          </mxGeometry>
        </mxCell>
        <mxCell id="yMJn0GiZVWK62FaD5o9r-2" value="&lt;font style=&quot;font-size: 16px;&quot;&gt;INS_ID&lt;/font&gt;" style="rounded=0;whiteSpace=wrap;html=1;" parent="yMJn0GiZVWK62FaD5o9r-70" vertex="1">
          <mxGeometry x="82.29007633587784" y="38.256880733944946" width="82.29007633587784" height="38.256880733944946" as="geometry" />
        </mxCell>
        <mxCell id="yMJn0GiZVWK62FaD5o9r-3" value="&lt;font style=&quot;font-size: 16px;&quot;&gt;F_name&lt;/font&gt;" style="rounded=0;whiteSpace=wrap;html=1;" parent="yMJn0GiZVWK62FaD5o9r-70" vertex="1">
          <mxGeometry x="164.58015267175568" y="38.256880733944946" width="82.29007633587784" height="38.256880733944946" as="geometry" />
        </mxCell>
        <mxCell id="yMJn0GiZVWK62FaD5o9r-4" value="&lt;font style=&quot;font-size: 16px;&quot;&gt;L_name&lt;/font&gt;" style="rounded=0;whiteSpace=wrap;html=1;" parent="yMJn0GiZVWK62FaD5o9r-70" vertex="1">
          <mxGeometry x="246.87022900763355" y="38.256880733944946" width="82.29007633587784" height="38.256880733944946" as="geometry" />
        </mxCell>
        <mxCell id="yMJn0GiZVWK62FaD5o9r-5" value="&lt;font style=&quot;font-size: 16px;&quot;&gt;sex&lt;/font&gt;" style="rounded=0;whiteSpace=wrap;html=1;" parent="yMJn0GiZVWK62FaD5o9r-70" vertex="1">
          <mxGeometry x="329.16030534351137" y="38.256880733944946" width="82.29007633587784" height="38.256880733944946" as="geometry" />
        </mxCell>
        <mxCell id="yMJn0GiZVWK62FaD5o9r-6" value="&lt;font style=&quot;font-size: 16px;&quot;&gt;pic&lt;/font&gt;" style="rounded=0;whiteSpace=wrap;html=1;" parent="yMJn0GiZVWK62FaD5o9r-70" vertex="1">
          <mxGeometry x="411.45038167938924" y="38.256880733944946" width="82.29007633587784" height="38.256880733944946" as="geometry" />
        </mxCell>
        <mxCell id="yMJn0GiZVWK62FaD5o9r-7" value="&lt;font style=&quot;font-size: 16px;&quot;&gt;Phone&lt;/font&gt;" style="rounded=0;whiteSpace=wrap;html=1;" parent="yMJn0GiZVWK62FaD5o9r-70" vertex="1">
          <mxGeometry x="493.7404580152671" y="38.256880733944946" width="82.29007633587784" height="38.256880733944946" as="geometry" />
        </mxCell>
        <mxCell id="yMJn0GiZVWK62FaD5o9r-8" value="&lt;font style=&quot;font-size: 16px;&quot;&gt;Email&lt;/font&gt;" style="rounded=0;whiteSpace=wrap;html=1;" parent="yMJn0GiZVWK62FaD5o9r-70" vertex="1">
          <mxGeometry x="576.030534351145" y="38.256880733944946" width="82.29007633587784" height="38.256880733944946" as="geometry" />
        </mxCell>
        <mxCell id="yMJn0GiZVWK62FaD5o9r-9" style="edgeStyle=orthogonalEdgeStyle;rounded=0;orthogonalLoop=1;jettySize=auto;html=1;entryX=0.5;entryY=1;entryDx=0;entryDy=0;exitX=0.25;exitY=1;exitDx=0;exitDy=0;" parent="yMJn0GiZVWK62FaD5o9r-70" source="yMJn0GiZVWK62FaD5o9r-12" target="yMJn0GiZVWK62FaD5o9r-47" edge="1">
          <mxGeometry relative="1" as="geometry">
            <mxPoint x="141.06870229007632" y="765.1376146788988" as="sourcePoint" />
          </mxGeometry>
        </mxCell>
        <mxCell id="yMJn0GiZVWK62FaD5o9r-10" style="edgeStyle=orthogonalEdgeStyle;rounded=0;orthogonalLoop=1;jettySize=auto;html=1;exitX=0.75;exitY=1;exitDx=0;exitDy=0;entryX=0.5;entryY=1;entryDx=0;entryDy=0;" parent="yMJn0GiZVWK62FaD5o9r-70" source="yMJn0GiZVWK62FaD5o9r-12" target="yMJn0GiZVWK62FaD5o9r-50" edge="1">
          <mxGeometry relative="1" as="geometry">
            <mxPoint x="235.11450381679387" y="943.6697247706419" as="targetPoint" />
            <Array as="points">
              <mxPoint x="156" y="714" />
              <mxPoint x="156" y="816" />
              <mxPoint x="590" y="816" />
              <mxPoint x="590" y="931" />
              <mxPoint x="229" y="931" />
            </Array>
          </mxGeometry>
        </mxCell>
        <mxCell id="yMJn0GiZVWK62FaD5o9r-11" style="edgeStyle=orthogonalEdgeStyle;rounded=0;orthogonalLoop=1;jettySize=auto;html=1;exitX=0.5;exitY=1;exitDx=0;exitDy=0;entryX=0.5;entryY=1;entryDx=0;entryDy=0;" parent="yMJn0GiZVWK62FaD5o9r-70" source="yMJn0GiZVWK62FaD5o9r-12" target="yMJn0GiZVWK62FaD5o9r-37" edge="1">
          <mxGeometry relative="1" as="geometry">
            <Array as="points">
              <mxPoint x="135.19083969465646" y="777.8899082568805" />
              <mxPoint x="47.02290076335877" y="777.8899082568805" />
              <mxPoint x="47.02290076335877" y="1338.990825688073" />
              <mxPoint x="558.3969465648854" y="1338.990825688073" />
            </Array>
          </mxGeometry>
        </mxCell>
        <mxCell id="yMJn0GiZVWK62FaD5o9r-12" value="&lt;font style=&quot;font-size: 16px;&quot;&gt;Stu_ID&lt;/font&gt;" style="rounded=0;whiteSpace=wrap;html=1;" parent="yMJn0GiZVWK62FaD5o9r-70" vertex="1">
          <mxGeometry x="94.04580152671754" y="675.8715596330273" width="129.3129770992366" height="38.256880733944946" as="geometry" />
        </mxCell>
        <mxCell id="yMJn0GiZVWK62FaD5o9r-13" value="&lt;font style=&quot;font-size: 16px;&quot;&gt;F_name&lt;/font&gt;" style="rounded=0;whiteSpace=wrap;html=1;" parent="yMJn0GiZVWK62FaD5o9r-70" vertex="1">
          <mxGeometry x="217.48091603053433" y="675.8715596330273" width="82.29007633587784" height="38.256880733944946" as="geometry" />
        </mxCell>
        <mxCell id="yMJn0GiZVWK62FaD5o9r-14" value="&lt;font style=&quot;font-size: 16px;&quot;&gt;L_name&lt;/font&gt;" style="rounded=0;whiteSpace=wrap;html=1;" parent="yMJn0GiZVWK62FaD5o9r-70" vertex="1">
          <mxGeometry x="299.77099236641214" y="675.8715596330273" width="82.29007633587784" height="38.256880733944946" as="geometry" />
        </mxCell>
        <mxCell id="yMJn0GiZVWK62FaD5o9r-15" value="&lt;font style=&quot;font-size: 16px;&quot;&gt;sex&lt;/font&gt;" style="rounded=0;whiteSpace=wrap;html=1;" parent="yMJn0GiZVWK62FaD5o9r-70" vertex="1">
          <mxGeometry x="382.0610687022901" y="675.8715596330273" width="82.29007633587784" height="38.256880733944946" as="geometry" />
        </mxCell>
        <mxCell id="yMJn0GiZVWK62FaD5o9r-16" value="&lt;font style=&quot;font-size: 16px;&quot;&gt;pic&lt;/font&gt;" style="rounded=0;whiteSpace=wrap;html=1;" parent="yMJn0GiZVWK62FaD5o9r-70" vertex="1">
          <mxGeometry x="464.3511450381679" y="675.8715596330273" width="82.29007633587784" height="38.256880733944946" as="geometry" />
        </mxCell>
        <mxCell id="yMJn0GiZVWK62FaD5o9r-17" value="&lt;font style=&quot;font-size: 16px;&quot;&gt;Phone&lt;/font&gt;" style="rounded=0;whiteSpace=wrap;html=1;" parent="yMJn0GiZVWK62FaD5o9r-70" vertex="1">
          <mxGeometry x="546.6412213740458" y="675.8715596330273" width="82.29007633587784" height="38.256880733944946" as="geometry" />
        </mxCell>
        <mxCell id="yMJn0GiZVWK62FaD5o9r-18" value="&lt;font style=&quot;font-size: 16px;&quot;&gt;Email&lt;/font&gt;" style="rounded=0;whiteSpace=wrap;html=1;" parent="yMJn0GiZVWK62FaD5o9r-70" vertex="1">
          <mxGeometry x="628.9312977099236" y="675.8715596330273" width="82.29007633587784" height="38.256880733944946" as="geometry" />
        </mxCell>
        <mxCell id="yMJn0GiZVWK62FaD5o9r-19" style="edgeStyle=orthogonalEdgeStyle;rounded=0;orthogonalLoop=1;jettySize=auto;html=1;exitX=0.5;exitY=1;exitDx=0;exitDy=0;entryX=0.5;entryY=1;entryDx=0;entryDy=0;" parent="yMJn0GiZVWK62FaD5o9r-70" source="yMJn0GiZVWK62FaD5o9r-21" target="yMJn0GiZVWK62FaD5o9r-48" edge="1">
          <mxGeometry relative="1" as="geometry">
            <mxPoint x="223.35877862595416" y="433.5779816513761" as="sourcePoint" />
            <mxPoint x="211.60305343511448" y="599.3577981651374" as="targetPoint" />
            <Array as="points">
              <mxPoint x="146.94656488549614" y="484.5871559633027" />
              <mxPoint x="329.16030534351137" y="484.5871559633027" />
              <mxPoint x="329.16030534351137" y="592.9816513761467" />
              <mxPoint x="229.23664122137401" y="592.9816513761467" />
            </Array>
          </mxGeometry>
        </mxCell>
        <mxCell id="yMJn0GiZVWK62FaD5o9r-20" style="edgeStyle=orthogonalEdgeStyle;rounded=0;orthogonalLoop=1;jettySize=auto;html=1;exitX=0.75;exitY=1;exitDx=0;exitDy=0;entryX=0.5;entryY=1;entryDx=0;entryDy=0;" parent="yMJn0GiZVWK62FaD5o9r-70" source="yMJn0GiZVWK62FaD5o9r-21" target="yMJn0GiZVWK62FaD5o9r-53" edge="1">
          <mxGeometry relative="1" as="geometry">
            <mxPoint x="1163.8167938931297" y="1224.2201834862383" as="targetPoint" />
            <Array as="points">
              <mxPoint x="173.98473282442745" y="459.0825688073393" />
              <mxPoint x="1504.7328244274806" y="459.0825688073393" />
              <mxPoint x="1504.7328244274806" y="1122.201834862385" />
              <mxPoint x="1040.381679389313" y="1122.201834862385" />
            </Array>
          </mxGeometry>
        </mxCell>
        <mxCell id="yMJn0GiZVWK62FaD5o9r-21" value="&lt;span style=&quot;font-size: 16px;&quot;&gt;course_ID&lt;/span&gt;" style="rounded=0;whiteSpace=wrap;html=1;" parent="yMJn0GiZVWK62FaD5o9r-70" vertex="1">
          <mxGeometry x="94.04580152671754" y="357.06422018348616" width="105.80152671755724" height="38.256880733944946" as="geometry" />
        </mxCell>
        <mxCell id="yMJn0GiZVWK62FaD5o9r-22" value="&lt;span style=&quot;font-size: 16px;&quot;&gt;name&lt;/span&gt;" style="rounded=0;whiteSpace=wrap;html=1;" parent="yMJn0GiZVWK62FaD5o9r-70" vertex="1">
          <mxGeometry x="199.8473282442748" y="357.06422018348616" width="82.29007633587784" height="38.256880733944946" as="geometry" />
        </mxCell>
        <mxCell id="yMJn0GiZVWK62FaD5o9r-23" value="&lt;span style=&quot;font-size: 16px;&quot;&gt;task_name&lt;/span&gt;" style="rounded=0;whiteSpace=wrap;html=1;" parent="yMJn0GiZVWK62FaD5o9r-70" vertex="1">
          <mxGeometry x="188.09160305343508" y="1045.6880733944952" width="105.80152671755724" height="38.256880733944946" as="geometry" />
        </mxCell>
        <mxCell id="yMJn0GiZVWK62FaD5o9r-24" style="edgeStyle=orthogonalEdgeStyle;rounded=0;orthogonalLoop=1;jettySize=auto;html=1;entryX=0.5;entryY=1;entryDx=0;entryDy=0;exitX=0.25;exitY=1;exitDx=0;exitDy=0;" parent="yMJn0GiZVWK62FaD5o9r-70" source="yMJn0GiZVWK62FaD5o9r-27" target="yMJn0GiZVWK62FaD5o9r-51" edge="1">
          <mxGeometry relative="1" as="geometry">
            <mxPoint x="129.3129770992366" y="1109.4495412844035" as="sourcePoint" />
          </mxGeometry>
        </mxCell>
        <mxCell id="yMJn0GiZVWK62FaD5o9r-25" style="edgeStyle=orthogonalEdgeStyle;rounded=0;orthogonalLoop=1;jettySize=auto;html=1;exitX=0.5;exitY=1;exitDx=0;exitDy=0;entryX=0.5;entryY=1;entryDx=0;entryDy=0;" parent="yMJn0GiZVWK62FaD5o9r-70" source="yMJn0GiZVWK62FaD5o9r-27" target="yMJn0GiZVWK62FaD5o9r-42" edge="1">
          <mxGeometry relative="1" as="geometry">
            <mxPoint x="752.3664122137401" y="1185.963302752293" as="targetPoint" />
            <Array as="points">
              <mxPoint x="146.94656488549614" y="1160.45871559633" />
              <mxPoint x="1116.7938931297708" y="1160.45871559633" />
              <mxPoint x="1116.7938931297708" y="1268.853211009174" />
              <mxPoint x="758.2442748091603" y="1268.853211009174" />
            </Array>
          </mxGeometry>
        </mxCell>
        <mxCell id="yMJn0GiZVWK62FaD5o9r-26" style="edgeStyle=orthogonalEdgeStyle;rounded=0;orthogonalLoop=1;jettySize=auto;html=1;exitX=0.75;exitY=1;exitDx=0;exitDy=0;entryX=0.5;entryY=1;entryDx=0;entryDy=0;" parent="yMJn0GiZVWK62FaD5o9r-70" source="yMJn0GiZVWK62FaD5o9r-27" target="yMJn0GiZVWK62FaD5o9r-69" edge="1">
          <mxGeometry relative="1" as="geometry">
            <Array as="points">
              <mxPoint x="168.10687022900763" y="1147.7064220183483" />
              <mxPoint x="1539.9999999999998" y="1147.7064220183483" />
              <mxPoint x="1539.9999999999998" y="306.05504587155957" />
              <mxPoint x="1105.038167938931" y="306.05504587155957" />
            </Array>
          </mxGeometry>
        </mxCell>
        <mxCell id="yMJn0GiZVWK62FaD5o9r-27" value="&lt;span style=&quot;font-size: 16px;&quot;&gt;task_id&lt;/span&gt;" style="rounded=0;whiteSpace=wrap;html=1;" parent="yMJn0GiZVWK62FaD5o9r-70" vertex="1">
          <mxGeometry x="105.80152671755724" y="1045.6880733944952" width="82.29007633587784" height="38.256880733944946" as="geometry" />
        </mxCell>
        <mxCell id="yMJn0GiZVWK62FaD5o9r-28" value="&lt;span style=&quot;font-size: 16px;&quot;&gt;description&lt;/span&gt;" style="rounded=0;whiteSpace=wrap;html=1;" parent="yMJn0GiZVWK62FaD5o9r-70" vertex="1">
          <mxGeometry x="293.8931297709923" y="1045.6880733944952" width="105.80152671755724" height="38.256880733944946" as="geometry" />
        </mxCell>
        <mxCell id="yMJn0GiZVWK62FaD5o9r-29" value="&lt;span style=&quot;font-size: 16px;&quot;&gt;has_multiple_attempt&lt;/span&gt;" style="rounded=0;whiteSpace=wrap;html=1;" parent="yMJn0GiZVWK62FaD5o9r-70" vertex="1">
          <mxGeometry x="399.6946564885496" y="1045.6880733944952" width="176.3358778625954" height="38.256880733944946" as="geometry" />
        </mxCell>
        <mxCell id="yMJn0GiZVWK62FaD5o9r-30" value="&lt;span style=&quot;font-size: 16px;&quot;&gt;start_date&lt;/span&gt;" style="rounded=0;whiteSpace=wrap;html=1;" parent="yMJn0GiZVWK62FaD5o9r-70" vertex="1">
          <mxGeometry x="752.3664122137403" y="1045.6880733944952" width="117.55725190839694" height="38.256880733944946" as="geometry" />
        </mxCell>
        <mxCell id="yMJn0GiZVWK62FaD5o9r-31" value="&lt;span style=&quot;font-size: 16px;&quot;&gt;due_date&lt;/span&gt;" style="rounded=0;whiteSpace=wrap;html=1;" parent="yMJn0GiZVWK62FaD5o9r-70" vertex="1">
          <mxGeometry x="869.9236641221373" y="1045.6880733944952" width="117.55725190839694" height="38.256880733944946" as="geometry" />
        </mxCell>
        <mxCell id="yMJn0GiZVWK62FaD5o9r-32" value="&lt;span style=&quot;font-size: 16px;&quot;&gt;grade&lt;/span&gt;" style="rounded=0;whiteSpace=wrap;html=1;" parent="yMJn0GiZVWK62FaD5o9r-70" vertex="1">
          <mxGeometry x="670.0763358778624" y="1045.6880733944952" width="82.29007633587784" height="38.256880733944946" as="geometry" />
        </mxCell>
        <mxCell id="yMJn0GiZVWK62FaD5o9r-33" value="&lt;span style=&quot;font-size: 16px;&quot;&gt;repo_id&lt;/span&gt;" style="rounded=0;whiteSpace=wrap;html=1;" parent="yMJn0GiZVWK62FaD5o9r-70" vertex="1">
          <mxGeometry x="188.09160305343508" y="1205.0917431192656" width="105.80152671755724" height="38.256880733944946" as="geometry" />
        </mxCell>
        <mxCell id="yMJn0GiZVWK62FaD5o9r-34" value="&lt;span style=&quot;font-size: 16px;&quot;&gt;fed_id&lt;/span&gt;" style="rounded=0;whiteSpace=wrap;html=1;" parent="yMJn0GiZVWK62FaD5o9r-70" vertex="1">
          <mxGeometry x="105.80152671755724" y="1205.0917431192656" width="82.29007633587784" height="38.256880733944946" as="geometry" />
        </mxCell>
        <mxCell id="yMJn0GiZVWK62FaD5o9r-35" value="&lt;span style=&quot;font-size: 16px;&quot;&gt;date&lt;/span&gt;" style="rounded=0;whiteSpace=wrap;html=1;" parent="yMJn0GiZVWK62FaD5o9r-70" vertex="1">
          <mxGeometry x="293.8931297709923" y="1205.0917431192656" width="105.80152671755724" height="38.256880733944946" as="geometry" />
        </mxCell>
        <mxCell id="yMJn0GiZVWK62FaD5o9r-36" value="&lt;span style=&quot;font-size: 16px;&quot;&gt;message&lt;/span&gt;" style="rounded=0;whiteSpace=wrap;html=1;" parent="yMJn0GiZVWK62FaD5o9r-70" vertex="1">
          <mxGeometry x="399.6946564885496" y="1205.0917431192656" width="105.80152671755724" height="38.256880733944946" as="geometry" />
        </mxCell>
        <mxCell id="yMJn0GiZVWK62FaD5o9r-37" value="&lt;span style=&quot;font-size: 16px;&quot;&gt;stu_id&lt;/span&gt;" style="rounded=0;whiteSpace=wrap;html=1;" parent="yMJn0GiZVWK62FaD5o9r-70" vertex="1">
          <mxGeometry x="505.4961832061068" y="1205.0917431192656" width="105.80152671755724" height="38.256880733944946" as="geometry" />
        </mxCell>
        <mxCell id="yMJn0GiZVWK62FaD5o9r-38" value="&lt;span style=&quot;font-size: 16px;&quot;&gt;ins_id&lt;/span&gt;" style="rounded=0;whiteSpace=wrap;html=1;" parent="yMJn0GiZVWK62FaD5o9r-70" vertex="1">
          <mxGeometry x="611.2977099236641" y="1205.0917431192656" width="105.80152671755724" height="38.256880733944946" as="geometry" />
        </mxCell>
        <mxCell id="yMJn0GiZVWK62FaD5o9r-39" value="&lt;span style=&quot;color: rgb(61, 71, 82);&quot;&gt;&lt;font style=&quot;font-size: 19px;&quot;&gt;Instructor&lt;/font&gt;&lt;/span&gt;" style="text;html=1;align=left;verticalAlign=middle;whiteSpace=wrap;rounded=0;fontStyle=1" parent="yMJn0GiZVWK62FaD5o9r-70" vertex="1">
          <mxGeometry x="82.29007633587784" width="117.55725190839694" height="38.256880733944946" as="geometry" />
        </mxCell>
        <mxCell id="yMJn0GiZVWK62FaD5o9r-40" value="&lt;span style=&quot;color: rgb(61, 71, 82);&quot;&gt;&lt;font style=&quot;font-size: 19px;&quot;&gt;Student&lt;/font&gt;&lt;/span&gt;" style="text;html=1;align=center;verticalAlign=middle;whiteSpace=wrap;rounded=0;fontStyle=1" parent="yMJn0GiZVWK62FaD5o9r-70" vertex="1">
          <mxGeometry x="76.41221374045801" y="637.6146788990824" width="117.55725190839694" height="38.256880733944946" as="geometry" />
        </mxCell>
        <mxCell id="yMJn0GiZVWK62FaD5o9r-41" value="&lt;font style=&quot;font-size: 16px;&quot;&gt;INS_ID&lt;/font&gt;" style="rounded=0;whiteSpace=wrap;html=1;" parent="yMJn0GiZVWK62FaD5o9r-70" vertex="1">
          <mxGeometry x="282.13740458015263" y="357.06422018348616" width="82.29007633587784" height="38.256880733944946" as="geometry" />
        </mxCell>
        <mxCell id="yMJn0GiZVWK62FaD5o9r-42" value="&lt;span style=&quot;font-size: 16px;&quot;&gt;task_id&lt;/span&gt;" style="rounded=0;whiteSpace=wrap;html=1;" parent="yMJn0GiZVWK62FaD5o9r-70" vertex="1">
          <mxGeometry x="717.0992366412213" y="1205.0917431192656" width="82.29007633587784" height="38.256880733944946" as="geometry" />
        </mxCell>
        <mxCell id="yMJn0GiZVWK62FaD5o9r-43" value="&lt;span style=&quot;color: rgb(61, 71, 82);&quot;&gt;&lt;font style=&quot;font-size: 19px;&quot;&gt;Task&lt;/font&gt;&lt;/span&gt;" style="text;html=1;align=left;verticalAlign=middle;whiteSpace=wrap;rounded=0;fontStyle=1" parent="yMJn0GiZVWK62FaD5o9r-70" vertex="1">
          <mxGeometry x="105.80152671755724" y="1007.4311926605501" width="82.29007633587784" height="38.256880733944946" as="geometry" />
        </mxCell>
        <mxCell id="yMJn0GiZVWK62FaD5o9r-44" value="&lt;span style=&quot;color: rgb(61, 71, 82);&quot;&gt;&lt;font style=&quot;font-size: 19px;&quot;&gt;Course&lt;/font&gt;&lt;/span&gt;" style="text;html=1;align=center;verticalAlign=middle;whiteSpace=wrap;rounded=0;fontStyle=1" parent="yMJn0GiZVWK62FaD5o9r-70" vertex="1">
          <mxGeometry x="76.41221374045801" y="318.8073394495412" width="117.55725190839694" height="38.256880733944946" as="geometry" />
        </mxCell>
        <mxCell id="yMJn0GiZVWK62FaD5o9r-45" value="&lt;span style=&quot;font-size: 15px;&quot;&gt;&lt;font face=&quot;Helvetica&quot;&gt;stu_grade&lt;/font&gt;&lt;/span&gt;" style="rounded=0;whiteSpace=wrap;html=1;" parent="yMJn0GiZVWK62FaD5o9r-70" vertex="1">
          <mxGeometry x="270.3816793893129" y="867.1559633027522" width="105.80152671755724" height="38.256880733944946" as="geometry" />
        </mxCell>
        <mxCell id="yMJn0GiZVWK62FaD5o9r-46" value="&lt;span style=&quot;color: rgb(61, 71, 82);&quot;&gt;&lt;font style=&quot;font-size: 19px;&quot;&gt;Feedback&lt;/font&gt;&lt;/span&gt;" style="text;html=1;align=center;verticalAlign=middle;whiteSpace=wrap;rounded=0;fontStyle=1" parent="yMJn0GiZVWK62FaD5o9r-70" vertex="1">
          <mxGeometry x="99.9236641221374" y="1160.45871559633" width="117.55725190839694" height="38.256880733944946" as="geometry" />
        </mxCell>
        <mxCell id="yMJn0GiZVWK62FaD5o9r-47" value="&lt;font style=&quot;font-size: 16px;&quot;&gt;Stu_ID&lt;/font&gt;" style="rounded=0;whiteSpace=wrap;html=1;" parent="yMJn0GiZVWK62FaD5o9r-70" vertex="1">
          <mxGeometry x="94.04580152671754" y="529.2201834862384" width="82.29007633587784" height="38.256880733944946" as="geometry" />
        </mxCell>
        <mxCell id="yMJn0GiZVWK62FaD5o9r-48" value="&lt;span style=&quot;font-size: 16px;&quot;&gt;course_ID&lt;/span&gt;" style="rounded=0;whiteSpace=wrap;html=1;" parent="yMJn0GiZVWK62FaD5o9r-70" vertex="1">
          <mxGeometry x="176.3358778625954" y="529.2201834862384" width="105.80152671755724" height="38.256880733944946" as="geometry" />
        </mxCell>
        <mxCell id="yMJn0GiZVWK62FaD5o9r-49" value="&lt;span style=&quot;color: rgb(61, 71, 82);&quot;&gt;&lt;font style=&quot;font-size: 19px;&quot;&gt;StudentCourses&lt;/font&gt;&lt;/span&gt;" style="text;html=1;align=left;verticalAlign=middle;whiteSpace=wrap;rounded=0;fontStyle=1" parent="yMJn0GiZVWK62FaD5o9r-70" vertex="1">
          <mxGeometry x="94.04580152671754" y="490.96330275229343" width="211.60305343511448" height="38.256880733944946" as="geometry" />
        </mxCell>
        <mxCell id="yMJn0GiZVWK62FaD5o9r-50" value="&lt;font style=&quot;font-size: 16px;&quot;&gt;Stu_ID&lt;/font&gt;" style="rounded=0;whiteSpace=wrap;html=1;" parent="yMJn0GiZVWK62FaD5o9r-70" vertex="1">
          <mxGeometry x="188.09160305343508" y="867.1559633027522" width="82.29007633587784" height="38.256880733944946" as="geometry" />
        </mxCell>
        <mxCell id="yMJn0GiZVWK62FaD5o9r-51" value="&lt;span style=&quot;font-size: 16px;&quot;&gt;task_id&lt;/span&gt;" style="rounded=0;whiteSpace=wrap;html=1;" parent="yMJn0GiZVWK62FaD5o9r-70" vertex="1">
          <mxGeometry x="105.80152671755724" y="867.1559633027522" width="82.29007633587784" height="38.256880733944946" as="geometry" />
        </mxCell>
        <mxCell id="yMJn0GiZVWK62FaD5o9r-52" value="&lt;span style=&quot;color: rgb(61, 71, 82);&quot;&gt;&lt;font style=&quot;font-size: 19px;&quot;&gt;StudentPreformeTask&lt;/font&gt;&lt;/span&gt;" style="text;html=1;align=left;verticalAlign=middle;whiteSpace=wrap;rounded=0;fontStyle=1" parent="yMJn0GiZVWK62FaD5o9r-70" vertex="1">
          <mxGeometry x="99.9236641221374" y="828.8990825688071" width="246.87022900763355" height="38.256880733944946" as="geometry" />
        </mxCell>
        <mxCell id="yMJn0GiZVWK62FaD5o9r-53" value="&lt;span style=&quot;font-size: 16px;&quot;&gt;course_ID&lt;/span&gt;" style="rounded=0;whiteSpace=wrap;html=1;" parent="yMJn0GiZVWK62FaD5o9r-70" vertex="1">
          <mxGeometry x="987.4809160305342" y="1045.6880733944952" width="105.80152671755724" height="38.256880733944946" as="geometry" />
        </mxCell>
        <mxCell id="yMJn0GiZVWK62FaD5o9r-54" value="&lt;span style=&quot;font-size: 15px;&quot;&gt;&lt;font face=&quot;Helvetica&quot; style=&quot;&quot;&gt;submit_date&lt;/font&gt;&lt;/span&gt;" style="rounded=0;whiteSpace=wrap;html=1;fontColor=default;" parent="yMJn0GiZVWK62FaD5o9r-70" vertex="1">
          <mxGeometry x="376.18320610687016" y="867.1559633027522" width="105.80152671755724" height="38.256880733944946" as="geometry" />
        </mxCell>
        <mxCell id="yMJn0GiZVWK62FaD5o9r-55" value="&lt;span style=&quot;font-size: 16px;&quot;&gt;late_submission_policy&lt;/span&gt;" style="rounded=0;whiteSpace=wrap;html=1;" parent="yMJn0GiZVWK62FaD5o9r-70" vertex="1">
          <mxGeometry x="1093.2824427480916" y="1045.6880733944952" width="235.11450381679387" height="38.256880733944946" as="geometry" />
        </mxCell>
        <mxCell id="yMJn0GiZVWK62FaD5o9r-56" value="&lt;span style=&quot;font-size: 16px;&quot;&gt;close_date&lt;/span&gt;" style="rounded=0;whiteSpace=wrap;html=1;" parent="yMJn0GiZVWK62FaD5o9r-70" vertex="1">
          <mxGeometry x="1328.3969465648852" y="1045.6880733944952" width="105.80152671755724" height="38.256880733944946" as="geometry" />
        </mxCell>
        <mxCell id="yMJn0GiZVWK62FaD5o9r-57" value="&lt;span style=&quot;font-size: 16px;&quot;&gt;attempts&lt;/span&gt;" style="rounded=0;whiteSpace=wrap;html=1;" parent="yMJn0GiZVWK62FaD5o9r-70" vertex="1">
          <mxGeometry x="576.030534351145" y="1045.6880733944952" width="94.04580152671754" height="38.256880733944946" as="geometry" />
        </mxCell>
        <mxCell id="yMJn0GiZVWK62FaD5o9r-58" value="&lt;span style=&quot;font-size: 16px;&quot;&gt;name&lt;/span&gt;" style="rounded=0;whiteSpace=wrap;html=1;" parent="yMJn0GiZVWK62FaD5o9r-70" vertex="1">
          <mxGeometry x="170.45801526717557" y="223.16513761467886" width="105.80152671755724" height="38.256880733944946" as="geometry" />
        </mxCell>
        <mxCell id="yMJn0GiZVWK62FaD5o9r-59" value="&lt;span style=&quot;font-size: 16px;&quot;&gt;id&lt;/span&gt;" style="rounded=0;whiteSpace=wrap;html=1;" parent="yMJn0GiZVWK62FaD5o9r-70" vertex="1">
          <mxGeometry x="88.1679389312977" y="223.16513761467886" width="82.29007633587784" height="38.256880733944946" as="geometry" />
        </mxCell>
        <mxCell id="yMJn0GiZVWK62FaD5o9r-60" value="&lt;span style=&quot;font-size: 16px;&quot;&gt;created_at&lt;/span&gt;" style="rounded=0;whiteSpace=wrap;html=1;" parent="yMJn0GiZVWK62FaD5o9r-70" vertex="1">
          <mxGeometry x="276.2595419847328" y="223.16513761467886" width="105.80152671755724" height="38.256880733944946" as="geometry" />
        </mxCell>
        <mxCell id="yMJn0GiZVWK62FaD5o9r-61" value="&lt;span style=&quot;font-size: 16px;&quot;&gt;description&lt;/span&gt;" style="rounded=0;whiteSpace=wrap;html=1;" parent="yMJn0GiZVWK62FaD5o9r-70" vertex="1">
          <mxGeometry x="382.0610687022901" y="223.16513761467886" width="105.80152671755724" height="38.256880733944946" as="geometry" />
        </mxCell>
        <mxCell id="yMJn0GiZVWK62FaD5o9r-62" value="&lt;span style=&quot;font-size: 16px;&quot;&gt;owner&lt;/span&gt;" style="rounded=0;whiteSpace=wrap;html=1;" parent="yMJn0GiZVWK62FaD5o9r-70" vertex="1">
          <mxGeometry x="487.8625954198473" y="223.16513761467886" width="105.80152671755724" height="38.256880733944946" as="geometry" />
        </mxCell>
        <mxCell id="yMJn0GiZVWK62FaD5o9r-63" value="url" style="rounded=0;whiteSpace=wrap;html=1;" parent="yMJn0GiZVWK62FaD5o9r-70" vertex="1">
          <mxGeometry x="593.6641221374044" y="223.16513761467886" width="105.80152671755724" height="38.256880733944946" as="geometry" />
        </mxCell>
        <mxCell id="yMJn0GiZVWK62FaD5o9r-64" value="&lt;span style=&quot;font-size: 16px;&quot;&gt;last_updated_at&lt;/span&gt;" style="rounded=0;whiteSpace=wrap;html=1;" parent="yMJn0GiZVWK62FaD5o9r-70" vertex="1">
          <mxGeometry x="699.4656488549617" y="223.16513761467886" width="176.3358778625954" height="38.256880733944946" as="geometry" />
        </mxCell>
        <mxCell id="yMJn0GiZVWK62FaD5o9r-65" value="&lt;span style=&quot;color: rgb(61, 71, 82);&quot;&gt;&lt;font style=&quot;font-size: 19px;&quot;&gt;Repository&amp;nbsp;&lt;/font&gt;&lt;/span&gt;" style="text;html=1;align=center;verticalAlign=middle;whiteSpace=wrap;rounded=0;fontStyle=1" parent="yMJn0GiZVWK62FaD5o9r-70" vertex="1">
          <mxGeometry x="82.29007633587784" y="178.53211009174308" width="117.55725190839694" height="38.256880733944946" as="geometry" />
        </mxCell>
        <mxCell id="yMJn0GiZVWK62FaD5o9r-66" value="&lt;span style=&quot;font-size: 16px;&quot;&gt;source&lt;/span&gt;&lt;div&gt;&lt;span style=&quot;font-size: 16px;&quot;&gt;ENUM[human, bot]&lt;/span&gt;&lt;/div&gt;" style="rounded=0;whiteSpace=wrap;html=1;" parent="yMJn0GiZVWK62FaD5o9r-70" vertex="1">
          <mxGeometry x="799.3893129770992" y="1205.0917431192656" width="188.09160305343508" height="38.256880733944946" as="geometry" />
        </mxCell>
        <mxCell id="yMJn0GiZVWK62FaD5o9r-67" value="&lt;span style=&quot;font-size: 16px;&quot;&gt;commit_id&lt;/span&gt;" style="rounded=0;whiteSpace=wrap;html=1;" parent="yMJn0GiZVWK62FaD5o9r-70" vertex="1">
          <mxGeometry x="987.4809160305342" y="1205.0917431192656" width="105.80152671755724" height="38.256880733944946" as="geometry" />
        </mxCell>
        <mxCell id="yMJn0GiZVWK62FaD5o9r-68" value="&lt;span style=&quot;font-size: 16px;&quot;&gt;type&lt;/span&gt;&lt;div&gt;&lt;span style=&quot;font-size: 16px;&quot;&gt;ENUM[&lt;/span&gt;&lt;span style=&quot;background-color: rgb(255, 255, 255); color: rgb(95, 99, 104); font-family: arial, sans-serif; font-size: 14px; font-weight: bold; text-align: left;&quot;&gt;template ,&lt;/span&gt;&lt;span style=&quot;font-size: 16px; background-color: initial;&quot;&gt;student, solution]&lt;/span&gt;&lt;/div&gt;" style="rounded=0;whiteSpace=wrap;html=1;" parent="yMJn0GiZVWK62FaD5o9r-70" vertex="1">
          <mxGeometry x="875.8015267175571" y="223.16513761467886" width="188.09160305343508" height="38.256880733944946" as="geometry" />
        </mxCell>
        <mxCell id="yMJn0GiZVWK62FaD5o9r-69" value="&lt;span style=&quot;font-size: 16px;&quot;&gt;task_id&lt;/span&gt;" style="rounded=0;whiteSpace=wrap;html=1;" parent="yMJn0GiZVWK62FaD5o9r-70" vertex="1">
          <mxGeometry x="1063.8931297709923" y="223.16513761467886" width="82.29007633587784" height="38.256880733944946" as="geometry" />
        </mxCell>
        <mxCell id="H2UFEEocYlhoMAEy_XvL-2" value="&lt;font style=&quot;font-size: 16px;&quot;&gt;Github&lt;/font&gt;" style="rounded=0;whiteSpace=wrap;html=1;" vertex="1" parent="yMJn0GiZVWK62FaD5o9r-70">
          <mxGeometry x="711.2212977099235" y="675.8715596330273" width="82.29007633587784" height="38.256880733944946" as="geometry" />
        </mxCell>
        <mxCell id="H2UFEEocYlhoMAEy_XvL-3" value="&lt;font style=&quot;font-size: 16px;&quot;&gt;Github&lt;/font&gt;" style="rounded=0;whiteSpace=wrap;html=1;" vertex="1" parent="yMJn0GiZVWK62FaD5o9r-70">
          <mxGeometry x="658.3212977099236" y="38.26155963302733" width="82.29007633587784" height="38.256880733944946" as="geometry" />
        </mxCell>
        <mxCell id="H2UFEEocYlhoMAEy_XvL-4" value="&lt;font style=&quot;font-size: 16px;&quot;&gt;status&lt;/font&gt;" style="rounded=0;whiteSpace=wrap;html=1;" vertex="1" parent="yMJn0GiZVWK62FaD5o9r-70">
          <mxGeometry x="481.9812977099235" y="867.1515596330273" width="82.29007633587784" height="38.256880733944946" as="geometry" />
        </mxCell>
        <mxCell id="H2UFEEocYlhoMAEy_XvL-151" value="&lt;font style=&quot;font-size: 16px;&quot;&gt;Github_org&lt;/font&gt;" style="rounded=0;whiteSpace=wrap;html=1;" vertex="1" parent="yMJn0GiZVWK62FaD5o9r-70">
          <mxGeometry x="364.43" y="357.06" width="105.57" height="38.26" as="geometry" />
        </mxCell>
        <mxCell id="H2UFEEocYlhoMAEy_XvL-152" value="&lt;font style=&quot;font-size: 16px;&quot;&gt;Github_org&lt;/font&gt;" style="rounded=0;whiteSpace=wrap;html=1;" vertex="1" parent="yMJn0GiZVWK62FaD5o9r-70">
          <mxGeometry x="1146.18" y="223.16" width="105.57" height="38.26" as="geometry" />
        </mxCell>
      </root>
    </mxGraphModel>
  </diagram>
</mxfile>
